<mxfile host="65bd71144e">
    <diagram id="ZzlRqPwqqnbtezqpkJND" name="Page-1">
        <mxGraphModel dx="594" dy="750" grid="1" gridSize="10" guides="1" tooltips="1" connect="1" arrows="1" fold="1" page="1" pageScale="1" pageWidth="827" pageHeight="1169" math="0" shadow="0">
            <root>
                <mxCell id="0"/>
                <mxCell id="1" parent="0"/>
                <mxCell id="4" value="Ethan Cleasby's Street Fighter" style="swimlane;" parent="1" vertex="1">
                    <mxGeometry x="20" width="790" height="490" as="geometry"/>
                </mxCell>
                <mxCell id="3" value="" style="shape=image;verticalLabelPosition=bottom;labelBackgroundColor=default;verticalAlign=top;aspect=fixed;imageAspect=0;image=data:image/png,iVBORw0KGgoAAAANSUhEUgAAASwAAACUCAYAAAApkxTZAAAACXBIWXMAAAsTAAALEwEAmpwYAAAF8WlUWHRYTUw6Y29tLmFkb2JlLnhtcAAAAAAAPD94cGFja2V0IGJlZ2luPSLvu78iIGlkPSJXNU0wTXBDZWhpSHpyZVN6TlRjemtjOWQiPz4gPHg6eG1wbWV0YSB4bWxuczp4PSJhZG9iZTpuczptZXRhLyIgeDp4bXB0az0iQWRvYmUgWE1QIENvcmUgNi4wLWMwMDIgNzkuMTY0MzUyLCAyMDIwLzAxLzMwLTE1OjUwOjM4ICAgICAgICAiPiA8cmRmOlJERiB4bWxuczpyZGY9Imh0dHA6Ly93d3cudzMub3JnLzE5OTkvMDIvMjItcmRmLXN5bnRheC1ucyMiPiA8cmRmOkRlc2NyaXB0aW9uIHJkZjphYm91dD0iIiB4bWxuczp4bXA9Imh0dHA6Ly9ucy5hZG9iZS5jb20veGFwLzEuMC8iIHhtbG5zOmRjPSJodHRwOi8vcHVybC5vcmcvZGMvZWxlbWVudHMvMS4xLyIgeG1sbnM6cGhvdG9zaG9wPSJodHRwOi8vbnMuYWRvYmUuY29tL3Bob3Rvc2hvcC8xLjAvIiB4bWxuczp4bXBNTT0iaHR0cDovL25zLmFkb2JlLmNvbS94YXAvMS4wL21tLyIgeG1sbnM6c3RFdnQ9Imh0dHA6Ly9ucy5hZG9iZS5jb20veGFwLzEuMC9zVHlwZS9SZXNvdXJjZUV2ZW50IyIgeG1wOkNyZWF0b3JUb29sPSJBZG9iZSBQaG90b3Nob3AgMjEuMSAoV2luZG93cykiIHhtcDpDcmVhdGVEYXRlPSIyMDIwLTA2LTA5VDIwOjM2OjM2KzAxOjAwIiB4bXA6TW9kaWZ5RGF0ZT0iMjAyMC0wNi0wOVQyMDozNjo1NyswMTowMCIgeG1wOk1ldGFkYXRhRGF0ZT0iMjAyMC0wNi0wOVQyMDozNjo1NyswMTowMCIgZGM6Zm9ybWF0PSJpbWFnZS9wbmciIHBob3Rvc2hvcDpDb2xvck1vZGU9IjMiIHBob3Rvc2hvcDpJQ0NQcm9maWxlPSJzUkdCIElFQzYxOTY2LTIuMSIgeG1wTU06SW5zdGFuY2VJRD0ieG1wLmlpZDpjNTg2ZTY4YS02MGY3LTVjNDAtYjgxNS0zM2E4MGU3OWVlMzMiIHhtcE1NOkRvY3VtZW50SUQ9ImFkb2JlOmRvY2lkOnBob3Rvc2hvcDo0YTI4NjgwNy1hYTk0LTFhNDQtODcyYy02MDg4ODcwNDkyN2IiIHhtcE1NOk9yaWdpbmFsRG9jdW1lbnRJRD0ieG1wLmRpZDo0NjU3ZjBmOS03NmVmLWIxNGMtODg0Mi1mNmE4MzU3MDM0M2EiPiA8eG1wTU06SGlzdG9yeT4gPHJkZjpTZXE+IDxyZGY6bGkgc3RFdnQ6YWN0aW9uPSJjcmVhdGVkIiBzdEV2dDppbnN0YW5jZUlEPSJ4bXAuaWlkOjQ2NTdmMGY5LTc2ZWYtYjE0Yy04ODQyLWY2YTgzNTcwMzQzYSIgc3RFdnQ6d2hlbj0iMjAyMC0wNi0wOVQyMDozNjozNiswMTowMCIgc3RFdnQ6c29mdHdhcmVBZ2VudD0iQWRvYmUgUGhvdG9zaG9wIDIxLjEgKFdpbmRvd3MpIi8+IDxyZGY6bGkgc3RFdnQ6YWN0aW9uPSJzYXZlZCIgc3RFdnQ6aW5zdGFuY2VJRD0ieG1wLmlpZDpjNTg2ZTY4YS02MGY3LTVjNDAtYjgxNS0zM2E4MGU3OWVlMzMiIHN0RXZ0OndoZW49IjIwMjAtMDYtMDlUMjA6MzY6NTcrMDE6MDAiIHN0RXZ0OnNvZnR3YXJlQWdlbnQ9IkFkb2JlIFBob3Rvc2hvcCAyMS4xIChXaW5kb3dzKSIgc3RFdnQ6Y2hhbmdlZD0iLyIvPiA8L3JkZjpTZXE+IDwveG1wTU06SGlzdG9yeT4gPC9yZGY6RGVzY3JpcHRpb24+IDwvcmRmOlJERj4gPC94OnhtcG1ldGE+IDw/eHBhY2tldCBlbmQ9InIiPz6Kt6xJAADi6UlEQVR4AezBB6BedWE47Od3zvvePXOz9waSEHYgjLBB9lZwW8dXbW1rq7bW1lVtnW2ttmrde4EoCsiWEWYgIQnZe++b3Ju733N+3x2EVZxFhf7zPIV3v/vdXmpijOrr661fv153d7dNmzZbuXKFCRPHat23V1V5QV7qtre1076929TX1xjeUGfH7t1iIUiL5cqKFfbt3EZSJiZBpR5bt7cbOXyo1tipqyszqLrMnr0lTU312tub7W3NjBhcYeOmViHU2tvdopBmxESW5fpFYkRAdNCLWUD0h5Di+BDCR/CLGOMHHfQ7KTjooIN+H+pxJq7G6RgcY1yBTzjod1Zw0EEHvVAm4UJcieNQ7mm7cAbavYgEQZ8oeikoOOigg/43TsBVuAST/HKvwWYvIkGQSORyLxUFBx100G+jDufg5ZiDYX69D+PnDvpfKzjooIN+nQm4CFfgOFT6zd2Cf3TQC6LgoIMOeq6A43EVLg5M1isG/UIkCoI+UfRLbcfrHPSCKTjooIP61OE8XInT0eRJCSIiAlJkUokol/kV/gTbHfSCKTjooP93TcRluBjHosrzyBAMiJGSPiWZgIDoebwfNznoBVVw0EH/7wiYjStxPqYi+A1EvaJ+h48Zrj6kFm3Za1+pE5nn+AE+5KAXXMFBB/3f1ohzcBVOQ5N+QZ8UuSgGvQJRr+iZCphQVe3yq65x3PHHatiy1OYHHvOXm+5D9BwP45UO+r0oOOig/3sm4QpciqNR7n+I+mQhEAMxIjqgSnDUxPFOuvAyl59/keNnT7Ro4RJ3fenbWtav8tn5S+zNIwHRAXtwFTIH/V4UHHTQS1/AybgKZ+JQJH6lQIyIDhhaXuHM2Sc68eLLnDvnGFOGVNC8nZ0/c9dfz/XuLz/ogsnjfGPPPo/tayExIOoTcT42OOj3puCgg16a6nEersBpGOxJAdGvE/U5auQUp58/x2kXn+vkQyZprMTm1dz7cRbdTUez2xbx1sW8ZtIYG6uqrNu5RzEt6sn0KiHqdTUectDvVcFBB710TMFluBjHotwzBMSAaEBA9CxlhTJnH3O8iy4+36yTTjJ9VIOyuJ0l9/G1fxGXL9a9vUd5ORr50RbesXOcf/vgW11+zlG+fdtcpz/4gA/c84BV+/cj6PUofuCg37uCgw568Qo4GS/HyzDZrxD1ikRPivoNrW1wwQWXuvLCCx119GGGl7cJu9fy+Lf5/o2s3KTUiWrSSspHo8CGrnobj361W//5QoccU+Nf/+M6Hbc+rHX3Hqv279cnFWV8x0F/EAUHHfTiUo+LcClOwnC/pTIcPnmyC656hYvOON1h48apLuxhxVxu+A4L72JtM5WoJNYl4tBckpWRJ4ROMgbX1PrzxlXSO17nS2/f4aerm7xi1mE+vmKVPkVEWvBdB/1BFBx00B/fVFyOC3AcygkGRAIiAgJy/8OIsjJHnz7HBZdf5aKZRxndWE9pDfNu4PYHWfiIuDcK1agmjkZIhJgil2aJJJYQyFPSXNXeTZQ2uXMnX15T461nnOQTDz2gJSsJIeiJUa/XYasDgqdFB73ACg466A8vxUm4CmdjKoInBQRRkMgEpPrFHqJ+5ZgxZIRjLzrfRRdd7JRDx6mrTNgyj4f+lSceFZevFHLUoJIwLiAQCZE8RpSEEIRoQIhiIJdK63PLdwd/e2fwulOO9aPl8y3etZNAjFGvdix00B9MwUEH/WHU4UJciTlo8j8k+kREfXL9Yq5PJU46dKZTrrnCy848w3GjGoWsnSdu4XsfE5cvYlOrUEQtYaQBWYogxiiIRP1CCH6ZNARRwRce7/GKacd5cMNWP1m1ESkx86QqrMbb8DkH/d4VHPRSEFCPFuReOqbjIpyPY1BFQCQYED1DRPRMg8srnHnWGc654nJzDj/G5KaU1i3M/wHf/7Fs2UbaSSsI9eTjkBGyQCRGhEiIgl5Rr0gIgl4xGBCIkRgFET1Cxr9eVcdhg33zxko3rtlib97qefwXrsBVaHbQ703BQS9mdbgYH8R38Q9eWr6M4z1DQAyBEIgR0dOiPoeNGuPyiy531vnnmzZltKHlrWxZwr3/xPzblTa0SJBUkzZiUCBPCJGeKIYgD5FIKhiQE4mxKA+pVBcCEvKctEQhUJOSRjqDJR3BbXe12HDDnU6dMdn3Lj7cu+5ZZtGePZ7HmdiE1+OHDvq9KDjoxWYorsKVOA7VBnzPS8/XcbxnCCIxEWNE1KcicMxxR7nq0iudcfqppowcpGL/FpYv5DufYv5t4u5IBWooDEUaRAmRECMikUQQg2eLeqWEXEmQxIQsUBGpjhQTOlJ7uoKfrO3y8Gra9yV2FKv1FCeYXl3pF4v3SxpyXaHkV6jCD3At/gStDnpBFRz0YjABr8SlOBIFz3YtFnvp+TLeiYn6BbkgyB1SU+6MS65w9rlXOemoyYYOimxbyILv893beGKZWCKUoZowjhgLZLkolyHNopBHkqBfRCBEguApISBSlihWZBQDWUHX/txda0p+vJmN21JJqLSvrMmImmGmjak1MW3TmpUs291s/p6dtqzq8Bu6ElfgavzAQS+YgoP+WGbilTgXR/rVvuml6So0eVJAlIt4+3GHestFUxRHbeHWH7DgbnHNFlJCHYYQQoFSIPQQiTEREsQoxFQQSRJCKoacUCJG8iCEQNArEgP1wf7OgsdWZq7d3mXhfmq6qxVKgyV1TUZOrjZYj5CxaX+Hm1ZvsKi1WYfcswVEv1S0Ej8VrBRsER30Aio46A/pRLwK52Cy38wC3OCl5xEc6xmiSIos8V8PLrH1/kVmFnOXHEf5IMLYQB6IyPTKCHolYk4SSsRASKQxEgyIUdArIJLHSAiCgJz6xIcfzHx+ZW5O7VBJVaWJDcM0lGeKsWR7V6clG9dZuXO3nVnm2RL/U/QMW3EbbsE8rELuoN+LgoN+nxKcjWtwJkb77X3VgGq0eenIPJ9Mr9yKjtwhH/qYw0461OZr/9HELQspBGIQY44gBL2CfiEikCDkxEhuQFUQu4LYlUqKUZJEfaIoVLC9M/XzLUVXzjhGddpubes+S7ettmb3XjvyLs8v8Uu04g7cjEewGD0O+oMoOOiFVomL8HKcjkEB0QFBvxCJniWEoE+M0ZN2oQX34z/wPS+siWjFTi+8B3B80CcRRUTDKqu96+/+3mve8AZD893c9nl5y1p5IPEMSSSm+oVMiAl5IJQoQw3SIrHo5vnt8pqxLjgMW9aTJvqEHFWJ6xZ0GjL4CI3afeChRz1bQEQwIHqOTszFLbgXi9DmoD+KgoN+B0EIwTM04QpcjJPQoFeCgCyQRCKiqF/Ur6qiwpUnHivZvsPNy9fZXur2DPX4KrbgBi+MAi7ABxAxy68TEP22HsBfEUQR0d9fc6mP/NtnKO3hx++V/+SrYjvpKFSjJ5KXiyEXQjcZYk4xUoWKAqWC5v2Z65dm5m/osWlLj5XjD/fFd76XO/6GHIWgX54RKm3ZkRtbV+HuTWv8T9GAiMSA+Bj5T3E/5pPsdNCLQsFBv7EkCcrKUkkgxjhaDNfkmfNinh8fqQqeLSDoFck9rRqzZs3xule+2ulnHO2eb33Dnl/c6xfFlJJnKhrwWbT73zkXr8a5GGLAn6LkVwl+VxfoFUUHTDt2GvvniddcJlaQDMZgxEApICWWJCEhTamLJIG2gkeao++u67Rte6Krq2hXWZNJdSM1VmzxxS/8u9lVu8T5m4VxiacU2NUSrMurjNHhkZ179AuInmkVbsadeCyEsCHG6A8pIDro1yk46FdKkqCsWFAqpkqlnkN27up4VUdXfl6MHUeJeZrrE/SJoqdEMk8bWixz6tkvc8UrrnHqkdMMrygRnvDpj7/bj69d4vRJI63r6PA89uJLfjcn4/W4AMM920P4gl8l+F1Mx08wyQFJII/u+tK3vGrvbcJo8iI9haCQR6ErUkBNTjGhkOlsTly/pMd126OuveV6StWS+sEmj6xVp0cIiSc2btOSRhNGj+JH/0Y5YiCJ5IHa1C9WtetIxspKwf4s0y/q04k/wx1Y748oICA66NcpOOgpESGQhkSxEBULiZh3H7dl+75Xt7W1ndPSXjqkuaUrEARdhEhARAyInmlMdY2zLr3K5ddc6bRDR6vJ97PqXn7yDZbcr9S6z9fu4KzDZ7tnyzr9AqJnuhY7/eaOxhtxAcb55T7uhfcO/CtBnwS5hDwiWtbco3TeXyrUfVty683S4ZHaIjEhy6zamvnOxtzNzVF1d5Xa0KS6cajJ42okopZSm+VbNnh8V4vtPV36XHXehYY3Fnn0bhqIaS5kkYDqSou2dJlc1WR5yzbP8X18xUEvKQUHCSFIk6CQJtIkhJ7u7LQ9ze0v37O744z9HaWpMe73lKBXFCMS5IgRUZ8ZtYOd88rXOuOCc50+dbCq2MqKO/neh8XHHhG2lShgRvDvm+mpHm1MdeqTm7fqFz3XV/x60/AaXIDD/XoL8CMvnGpch3P1CYRIrk+mz1Wnn+PzN1ynsOlBNi4QRtNaKrpvUY9bt/JgV6K8p9HIiiGmNQ7SUOxWKPRYs2Of7y5fZEPMPa3ogJddfTFblsi3tApjyBPSnoRirjtjaXeVSVVdHty9zXPc4aCXnIL/h6VJUCxPdWWx2N2Vv6yrJ79i5YZdZ7dn+cgsyw1IEAzIiZ6W6XfIoFGueM2VzjjvQieOHq2y2MySm/nKtfLHlwp7CbWEOozG6GpfnN/jffdmPnfeob63dJk+SQjyGD3DXXjA8xuH1+IyHEVAMCAi+hU+5YVzDn6AegeEKOoVGRaCn3z3O45/xdX85D2Wf+ijbtnJPKzoStQmo02trXNMY73KClo7Ozy8ZpnFe5v1GFBWVu5Pzzje/IVLPLRllyCKaMApRxzFg58Ry0nKEmlMqYzUsnB7h45kvA6Z7fvbCCTRAXM9KSI66KWg4P8lkRCCYjFVUVawqyt72e69rW/c3xVP7+4qNeWISkiQEHJCTu5/OGTkJK991dVOueBMR40YpibfzhN384XvyhavEHKSKpKqRGyIYgxCEhid+tzDHd52T/SpU+a4f9MGP1+3SYo0pnrkotyTvuTZhuM1uBLHkQT9csGAKDogGBA9y0J8ywvjM/hzEokoIoZIrt/fXPNqH/zPT1m5cYn3zBhp8xNbLR9cY3TNWFOqq40pC7oLnZbt2ueBRWvs7ul0wMRRE1x5xaXOOudMxx5zuJu+9mX7F2/wmL16lPQ5bvqRpowczMr7JINRkRIDScbIgnnzu41PGmzvbPEct2ONJwUDooNe7Ar+XxCjJEmUl6WyQijs2tPy9ubmnX+xv7V7fB6jAwICYsiJiIiecujIcV79qtc565KzHT5ysKp9y1l1Kz/6sbhgmSwjrSMZjDRBSncuiAxPaMm9++vdPrGTW9/0JlvWb/Dfi1YgiOiWI3rSL/AdVOFP8HIcjzK9AgKiKAqiSECMDghIAiXP8mnPFP0upuJHmK5X0CcRZUQOHTfaB97zXkPHjfLhP/sz9157nYl1Q407+kQjy6KWtn1u3LTG4ubdDqgq1nr5BRe58NKXOebYmSY2pCq69rFugfitL7jxP241cuQUjXsr7Ni/X585l19C137d69YoG45CDxIKkYrg7taCicXg9p3N+oTogJ97jqBPFB30Ylbwf1kkRsrLi9IQi837Ot+1ZXfb33T2GCRGAQEx6Bf1ioiecviYSa55/Wudd8ZpDh3eoKJtLSvv4ns/YP5iOZIGwjAKCQIxBqEb5SWGRq1b+Ox1Jd9uKUhmX23Zv71f60M/94Nbf6axqkpzezsSRERP2odP4f9DtecR5WJANCBGNRWVXnHaKcLO7X66eJntXV0EByzGV/zu6vGn+CcUPSmGXIxU4E0vO9PlZ59t96oVrv/ER2T725wx83Ar9+z3uccfsTvrccBR0w53ySuuce7sWaaNH6uuooU1j/Lod3j8JyxaQ06YWvCyKZkHtrQ5f8woX1u6XJ9zTzuXFT9TKEcdMRKSnOrEru4ue7uadBSK1u7aQyAiRH0e8TyCaEDwQgiCKDrohVPwf1REsVhQUV60d+/+N61bu+tjzW3dg/RLBH2iqFf0lIDjpk1zxWv/xAWzZzt0bI20dRkLf8T1d/HYQiKxgTgukeSBPIpJENNc0hOFJFIb7dzENxdx99A5hr7pKp894RCnTei088HPufSdX3XWqBHSLTsckApyRFGvixH8EtGTIgmOOuRQb3772511xoke+8qXtc7d6ae55/qUA6LfRIpTcFFgNo6NFD1X1O+Nsw73pzOm+uaXv2HhpnWaY2pea6vS9mZ9htc3eMPlV7jk/Ascf8how+vr2LuYJTczd7648B52l4RK1GEsGsq0dLF5S8Fhw4f56br1+kxrHGzGuAbuuYUR5NVBEgooMSE17xcM7ximc1C3Ln1SQabXCtznlwiIMfpfiwgOeoEV/B8TY5QmifLKcrt2t56wY1f7l/Z39EzXJwQhEhFFB1TijNmznf2qNzhn9skOa+xm31Ie/Zr4gzvEJ9YI3RiMscgSIU/ELIqBEIKQE2Iksm8vPypMtmLqHOPOP9bHRmQODWu54ytsm+/+xVQWRhtaXWNXKUcQRRGJKEdMBL1CHhDFgOgpBcwaO96Fb3yjy84+16GTa6hu9olXvcuiX8zXOHKY7T1dSImZXo8LvqZXEPSJoucxFhfhbNFxGKlfEBD1CtHTAqI+31+w1HcfWaw1Rj0o4qTTTnPJFVc7b9YsUwfVSeJeVt3Bnd+WLXmYNRulGaoJTcSRyIkSQiIkmbqxqUNHJ3aXWL8/1+fI009V2Ziy83HJMGKxQJoSMhoSN68vqS6vsHDfLv1i1CdyJ3IHvSQV/B8S86iiolwIIdm0aetnVq7d+jZPSpAjBsRcnzENTd7y1+/0yosvNrGxyJaHePifxYfvZPUWfUIdhgVCQoyUAjESM0keCAgBmUzBvLpjbRk91dS028tHdKne+xVun0crDgnu2JN404LcX8weo7mz3YAo6hXIDQiIMRX1yYj6HT5slMve/BaXXnyOo4YNZ+/jrP48N9ztnZ9d7f5SnbeccZS33/mAPkEmIOff9QoBkSh6UhGn4WKciJkoeI4YiDFBYkCJGBEdUFlR6+TjD/Xzex9wwtjhfvSzH6oYNYKVD7HoP1n2iGzpQqGNpJK0ERORIJAXibEgzYNQ2UNlzuSiRauizy0umDU+saejU5+Lz76YjsXy2CwZRMgjaYliGWUs3FVmYlq0YesOA6Ko3x1+ZxHRi1yCo3ASZmIEyg3IsQ8r8QDuRJuXkIL/E6IQqK2ttnVL86xla9Zd17yvfbRewYBcrxj1mT5yrPf808dddvaJqtqXc9uH5ff8WNzcIS0QmjAykSkT8pIkywhRv5jrFyMh6JfnYjm7qxqNK7Sb1f2gsHstT/QwBJMK9nYmvrag2yfnFfz57BPUpZmPLnjCs0SiFDkxItNncsMQr/mT1zntggvMmjBKRfdeHv0x//0NNm5y23b+fgGjh4zwZyce5QvzHre/s1tACOTRPMHXQoKozxRcgpMxG0P9OlGvHBlRvyJOnznLyeed67RzTjS5rtJtX/u2jrmPGTJ9looJdbxlhtLmTmkloYZ0GMqQJPIEhVwikERJBRoS6oqkic6OaN7KzLu+ljmxYYIe++3u2qcesw8/hE3/KdSjJpBEkoQhPVZsKhiyd7CGYo9N7Z0GRL26Mc9vLfciV4eLcTZOxkS/RiLRa18Ub8fncbuXgIL/A9I0VVZWZv36je9dsmTph/NcrwS5GAJRr2h03VAf+ugnveqKc5RtfIDPXKp0/2NCkbQRo4M8ScQkk+SkGWJCyIgI+sUQ5CGRJLkgQSp0R0Oz3ZTvpIi6giWlouse7bFud8nSUlF7HOmfzzzM8tZmf/XAYwYUSHJiTtQr02d0fYPXXPMaZ15ysVlTJ6rt2cHi2/nRV2WPrxFKJBP5dgdvWVDuT486wrSGCh/9xYMW79uDVCIT9UrCp5Pg0BjjOzELh3uWgEAIxBzR/xQFzJpyiPNedpHjTjnZ5EnDTalOhLSZzs3+/B2fseLBtRoG1Tn1sgtZcL+4u1NhCrEYxCQRCgkxIemWVEcaAvUpWUF3N7dv7fHI7d32bGJdZ4Utewc5cnCj48bU+9G6rfpMmjDR2PFjWL5eGIKKQJoSexhd7q7bu9Xvr7SrqUvmWeZjnf8bDsUVOBXHB+o8KXqGgEDI9YsOiAj1uIJ4BR7Dn+IRL2IFL2FZlqmqqlJbW1tYs2btj7Isu0ivEAIxinrFqM+7/+Ld3v+Pf6dq6wN8+Cxx7mJxCOkYgqBPzIlZLs0TEVFJSCIxEKIoEQuESB5JItKM6pTyMjoyt20r+eHKkv27M5tVK6sc5/DGRqdXlykrj76/YrmbNm7ytBK5fo0Vta6+6jUuv+pCx84co6HUzNK5fPHvxLmPyntIm0hHIaKuqKLIpSOHmzKi1ptuusOAgEymV9QR+ECMYVKM0YDo2SIhIeaInmni4BHOe9mlTj/rRNOmTzCpqUpZx05WLefBG1j8Y7uW7vGBe1mYVps1daz7t7c649STuPHPxWGEhqKQ5SQYUqKhkrScThZuyn1/brdtazJdews2ZoMMMcSYihqTy3IzJwa7u1t8eukqD2/do885p13IkDbmL6YBaSAkJAmN3LUoqkkard23yYBgQLzZS1cBZ+EinIQjPENEYkAMiAGRgEBAQCZBQR5KyPWL+hyNh/HPeK8XqYKXqBijuro669atGzf/sfl3Zlk2MQQkgTyKBhx72GG+9Z3vOmRUwn9cyC3300g8FDERc4QoiIIgMSAIoiclgRiImZATihRrCqQFWkt+vKrHt9d1a2lJdMRGTY2jHDq2wuSyHj15yRNbt5q7tsWezhbP1ZCWueiKq7366qvMPnSa2so9LLmH//4ED90ldpE3YARpICKEQB6p5LatPVqKFR5ev16foCAqeYbKGOMkol8pZvoMTVOzTz3Ty668zMlHHG5K0xDlyW7WPcxj97LwVlasEyOhHE20ja3zynfM9uGy6MPfftzhhx1rxJ617HpAMoJYHkhzoSG1rb3MD+9rd+9qsu1lOtqq5WXjHVLVaEhVj/E1qZbuTvN3bPTYpr1auzs819lnnMv+68TyPUINQkaSURWU2lMtO2uMDCWbtu42ICDq9YCXliG4HOfiRAzzK+QJIqJeUb9cv9wBObqJCAiInunvMRHXeBEqxBi9lMQYFQoFgwYN0traOuTHP/7x3RgnBAliRm7AB//m773vI+/hzs/K3/EeISdMQpaQ6RezSBKFoFcQgicFQa8YyXLKgtBQSZGevV2uW1Tyww3sai8qN0hj41CHjq02rCJq7mgzd8tq83bv0ZFFzzU4SZ15wSWuuuZq5xw9U215Jytu4Qef4P572Ic64mDyMrJSmUKWi0oE5JHBwR0revxsRaW3zx7ui489ol9SIiL6jUyor3fc4Uc47MTTzDn1eEePHaWhKmXXwyz7Lj95UFz+qNhCqCDUkY8PYjGRxChkuXGHdVi07mHvvzE1rFhpdFM5leu1lTqVFUlruiVjC264h7/9XGbi0LGG1Tapr4jSoUGXaMWmTR7atlVzlhuQEII+qYAowxDMmDyOjuuERpSVUehBgVHRyifaNawbLqtn7aZuJAiInVjoxe84XI6TMAvlflO5p9SH1LTpRzrk6KPVDxmksqpad1e7/bs32fDYQsueWG1ddxvR87kazXibF5lCmqZeSpIk0dXVZdGiRYWbbrzpZxingJws6hUNK6/yw5/c7JQThvOu2fK5i4UJqAhkEbkkIyaEhBAQC6JUlmYKWSSWKAvUFymmOnZlfvRop+9si3a0VRqaNKkfVGfm8HqD0szulmZz1222YO8emf+pUeL88y9x/quu9rIjDzOoMrL2Lq7/vPze+yQ7uxmERmJTImRRjEHoppgnQsjFgIhy9u1N/NviOv922XmWrV1ldVu7gCSSxyCGSAyEqF8Mgj5RQI5hePnhh7n8/f9g1pQKHv+5+NPH5I/fJ9m+nwIaCIMwEoEoJSkIIQjFLprIWkv+7nvNtI9yWhN/8o43+49b77Fn+RE+8MrA9gXUFXxlUadZo450zLShfr5shbs2bLWup8sznThqorNff5nx+/dacMe9Pr14hUyCgJLjZp5o6MQaWhZQixzFKM9LkvoKP3swCO01mmu6DMgR9PoFtnnxqY1cEDg7cHJkqj4BMegTRAERUZ9gQPRME2sanHXFFS649CLHTT/UiNoqYhut29i3g7ydymPpeIW9u3d5ZOECX//27b69+An9QiBGT3orFuFzXkQKxWLRS0WMUWNjo1WrVvna1752fWdn5ywBGQExRscceayf3nqjEetukV1yqiSQTEUeyIg5EUlCMCCGIIslaZYpFFGXUiy3vTV30yPdbtnK0o6iUelYI4c2mTa0XE2xZMXe3W5Zsd7KljbPpz5JXHDBRc6/+mpnzJxoRE3Kqke49h3io78QdmdUkDRgkl6BGIQ8IBFEYhDyHvJMqE5pCJQyd20fZebFZ6gdVnR0VZNPVp3gI/c/ormUIRAjItGTooiABDlGNjS46oP/It+5yNaP/oURPYQGwiBMJaaJIEFBSDJ5oUdSmQkNCdWV1ET7mgv+6+YhXjNppPquVtXHH+W+225z/edu9q1bPsXm11NHV5bZt6fK6PLcB++6w55Sps+oYqPzjj/DMWef5bSTZpg6o8lPvvED1Y8/4Ya9rfqlGTGQc/acCxi6hB2PUUShglAtKVRgtAULlqlIK63bs0O/gBj1uteLxxRciTmYjXq9ggHRk4J+URCjXtGA6IA54yc68zWvM+f0sxw/eZzK+h4W38VN7xVXzFPatkHaHiU5MRBTksYmDSOHOXvaTGd/4ipv+N4If3v9Qo+27PAcH8eN2OBFotDT0+OlIoSgra3No48++pnOzs4L9Yn6RdFJs+e46/67Fb/3XqVP/rNkDHlVKu1CkhEJgRA9LRKKUaEqoVBmW3vuuvnd5q0veairaHjFZMc1VZs8Miqk1Vbsbnbbqids6OzybAFRXSi4/IKLvP6NV5lxyCRNlUXWPcBPPyebe4+4m0IVBpGNTYSYSGJGHvULBkRCklMRKQsUyy3bFX3/zm5zt9DVmDtpywL3NO+SDmq0eG+75lJmQK6hrNxl515sxsyjhUKPJ+be79rbf24fSgZc9uZXOOaYet73CUagpkgxINUnJN0UStRmNBUk5eVkwYJNJXfPbbFkDUubc1NG1nnnaeMtX77dxtVrzf/qN338P75t1KgW8fEdwjQefDi3bU212RNrzZl+tjkXneu442eaMXGwhomVVKzAz7z3jd+x/Kv7jZ022vWbtnpKHvWZPfto4nzKUThEnlYL6WChplEsjZSt2aWmqmTZ1j0Ez3SvP54izsQlOAmH+03E6Lkak4ILTzvd2de8wszjTzBzRI3QtYf59/LFd8kfu1/WQqFAqKJYjmokhJAIWc7+3eLi3eIjSyRTap1UW+VPpg1S2FDjoS1rPEMN3oc3eZEo7Nmzx0vF0KFD3Xjjja99+OGH/1y/QBrIcjMnznDbL+5W/PLb5J/5nMIhQZYGSSknBEJCjiSIopDkNBRIU9tagu892mXJhk5PZEWxYoLjG5tcXZkK5QXL9mx37+LNNrZ3eJZgQEyRueyEE/3olu/RusF9v5hvy133abrtq0qbOxQGkVYFxiSERESMGbGkFCjEhCwnRMoDDYFQZu1ufjivy+IdXRbnVUbXTnLMmBpJsdumnfvcuWGHTSs26TNp6GivfMXVTjr7FDMOGWdUNbZvJOvg9ad651eG+P/+/Vr3tHbo07FrN3f/jK0bGYE0J4nU9dCYUlWkp9zG5sxP53VZsYLWnYlVrfWawjCjqqocNbSk0Nnlr798oxWlTu0dJUkp+KvRDbTcKjShnh/dUXT1m//F+99zIQ1bqNxB93J2foLlP6eMvcXUE49wxPRj/OeapfqkyDL9mirrjTmskf07qTpELB6llNRJkyHS+kMsWrJHYUuXvKzClq5uz7AXK/1hjYwxXoo5OBXDBZKoXy4YEB2Qe4boKVOGDXfF5a8y5+yzHD59stFNkR0rWHgtX/quuGC5Uom0llBFYVQQpEREvRJCN1kgKcore6gMQn1kZ6uKmla6tzuy4Sh7O5ss37Nb0CeIvJH4r1jiRaBQU1PjxS7GqLGx0bp16w6dN2/ef3tKIMsNq6lzw72/UPnjD4uf+ZxkKllSkJb0igTESE+kLBGGJDp7gs8t6HH/hi6t7eVay8eY3jTKOdU9YjFatqfFj5ZtsqGj3dMCoiAIglwkRGKmJin4zy9/zne+8J++++6POfWtf+qVDZvp6VCYmBARIzGiJEmiJJIL5GXkkUEZxaB1b+LzD3d7dFOXLZ1Vauunmj6q1qiyaEfLXt9dssL6LNPnkCnTfOx1/5+zZh/r0HH1qkrb2LCMm7/N3B/SHPU7bogdK+ucOHayZSuX29Hd7fzL3sKQJTSgWq+Mwan2tOCmx7vdtbpk/66iPbvLdRphTGWDujQ4cSw9nV3mN2/1yMpmrW2dnmnm6MMcMXkYrT+lgZ6tvOE1h5t2Vg+df82aa8WObkGvClSikvLqGlVVJc0bmsW8R59MgoDMWYfONHJsSndK9WVCcYSypEFManGqu+//krbmDlWjGvULKTHT6yFs8/s3GxfhJMxG0QGBgAS5XkGvSNQv97Q6HHfcsS5+5WudfOxxpk0aqyLuYuUj3Hotc68VN+7Tr4EwjGJClOiTZ0EQJSGKyGMmEYQkR5TkiQGBIgpcMo3V923zsiEjLd+zW5RI5TJBrz/FX3gRKDQ2NnqxKxQKisWi++677z+yLCv3lFyKG+6827h1t+n51D8qTibGSiHPCBkx6JdlDApUpj42t9sXl+aG1o0yffgIM0emutKSlbu3unHJNlvaOz1bQDAg6BP0iUT9/v7tb/STL/2XD//bF3z45ru8Pl3KJz8v1iNJhCxHQshJIgGRJAaySF3w401FX1zQqdBRoadqknHDB5lWTK3ft831Cx+1Ktdv1oln+fs3vN7Zx8wwYXAlO5aw5mZuu4EFC8UclYQ6TELUa6cnmne6Z+9YhxTLTJp1rJMvmq7rfW8QGilrCAxJ/XRR6u2f7nJ4/Wj19UM0lmeGDU0Uy4INe/a4bvM2m1Z26RcSYtQvGBCZNW0GQ3rYu5pyiuUVjpw8n9VvJUEZoSYRC7k+IU9oSt131z7bVw42YXSNfds6DQgkyJkz50Sa6sXOsUI6hUKdGKoFCao8cu/jhlZWWbN7j34h0y+6ze9HPS7GWTgZE/0ykYhSQESMnmlSTa2zL3658y6/0KxpUw0fOYhdT7Dg5/z8Nh6+X9yPKkI1YRR5CJKAiBgEAxJPC0gQBM8rBFoZNarg6BFbXb9riGNGjPLo1s0EkhjlXIC/RPRHViiVSl7MYowaGxv9+Mc/fueKFSvO9hxf/Oo3zBraIX/tNQqjieXl8lKOHiQIlEoMK1izv+Dy73WKyQhvOXaakLSbt3mj/1q+w7bubk8LCISgX4yeKyKJ5BhaUyV5fL7tS1ZbuWyNyrBE9tq3SUdSKkuFrKSQI0F1UdaeSWMkRnJUZza2pt5+S27mhCOcNLHG1rYWNy6ab12ppCyk5lx0hY+88lXOnjlDY01kw4M8/O/Mu431m8WU0IBx5GXkKYUkoVCQ57m0Njr0kMzehd0mZgXnX3Ch73z8c5Y/UuaDb5zKphWMSX37ui5j645w5ayxbli70KKtOyxq6RA97aKjZzntgrNVrV5h7sOP+daq1URPOWHOLCp3iQVCJXkZeUeiUFMglJCQByGipoohQymMFkN0zZyhdm/bJIt6BeTkUZ+jTpiIGqHiRGIZIUWCFDu1rlmhPo2W7tqtT5qT6bfUC2cGLsfJmI0av42oXzVmz5jpjJe/ytmnn+aIcaMVy0usvYm7rhcfe5BlK4SIGtQTBif65bk8kkWSiOBZQggGRH1CCH65XCyLQnNm1hjubGkxraHRo1s3yzxlIk7AA/7ICt3d3V7MKioqrF+/vv7BBx/8a30Con5XX32NN7zqDF45U6gkr0iFPJeEkohSkki7SkJT8MSucide2+a0KTO96rBhvj5vsZu2bPV8gqIoJ8mIiHpFB0TEhBAR2dnR7Zt3P+Id73qX7avuNv6zb5UOQSVFGQ2BYhndqZ890G7wpDFOGLSPllZikYroJ6u6TR802pVTh3nLzbcq4eIrXuWfX/N6L5s6TE1VZMMj3PZO8cE7hC1t1GAYpgZBSiiTFzKx0CVJyCqjNO2Wdgdqgq5CYn9Ht1mHTZCsXuGetc3e9ZFvsPm1DKa9M9W5vNopg1Mf+sWt1nR16TOiUO/sU890/JlnuvCM2VorS277yteN2NVi5e4W/QIijZhz5FF0XSdUI5DEkigXYy5UBoaNpmwIanW0VHn03n3u/8VOS5Z1OrylW5oVBYkoIuozsbratOmHoCRTI9WjT9CNYRas2MDO7TRU2LypW588IGrBo353FTgXZ+BUHOE3lCIPQZQQM0MLiYsuvcKJF1/u5MOnmjpuCHt3sPhe8fabdM+/W2FntyQl1GMkEv2iIJQSAgIBBU+K0bNFv7lATOjMTRlW5eTl+9zfVaOiLNXZnXmGOXjAH1mhWCx6sYoxGjx4sLvuuut9+/fvH6Ffiszouiaf/sS/87E/FTfuEScXJT1RUEIgBCGUhJqoLdY462etLplxrDNG1nrDz27TnusVBIkgF0VRiiAqISfzy+XEQBLIs5L1uOehx9Sn+42fUIZOQoXmvbm5C7s9vqvL91cw4ZJXuP7yoXz/M1SVU8hJo4d20l1d5QsP3K9p8CB33vRj06ZN5Bff4robZAvuF1pJKglNxCMpJYkkFKQ50m6qc8mwckldFbu6xPYgVKA8MjTYvbEkTVOtxeCWL33Nxz/5JZMO2cvCtczgzsczG9YXHDe6ZOzIY73hygsdf8KxTjh0hNqpRQrLlbZ9wdsv/pZhW4f7ruCh5p2EQAzITRt/hCnTa2i9loSYE4bVSeuGo1rWUe6hB9vdd8ce65c3W76iS/vmHlPaKzVWB21TEt9bt0yUEwyInDR9pvrxo7FXlMiRxCiGKKjx0APz5M0tssGDHRD1exzb/XbG4HKcgtPQ5HcSkBJLZk89xM133q2+qYonbuXxz8k/f7ts9TqFdkIlZXXEseQJSY6YEPULeoVMvxgEzxQ8W/TbCJGYpEJnt7qabq3dwbG1De7bvRsJcr2O9yJQ2L59uxeriooKmzZtmvzQQw+9Xa8QghgzfT7yhS8Zuvl+2fXXSycHoaeEgEQecwnSnkh9ubfd3mrM4CnOGF3rTT+/S6ZXSIhBlIuiAZkDEswYPdVJp8xx6GGTjBk/Ws3QJj27d9v0xFLXfvc7blu7Ti4gyvG+f/u4SeXr/OwN/2X+bra1d1qcVUjTCcaHcnOm8t4P/o3khneJ3YTaSNJDd8G2XUxpzI0/6RTH/OMHDN85X88bTlfYkwlDSIdhZCCtptAlhB7FQs6gbgYVCRV2NGd++lCH1WuClx8fHTmtjK4y0nZGFKzeXDK50GDJtm3mYtjMSWz7HI0YVHD33C4zL36f937ijf6uabu0rpmuRWz7R3HRg0IZXT2cU52qGD3Mt5Ys1yfEIAZEDp9+GENTNu0R0yph5FRrN5f74ee3WfvYfttW9di5scuYrjqNio4YVKZmTJXt3Z3m7t5j4YOP6i6V9EkiuQEnnTCT2npRi1QqhAoEQZ+ipffcapzUhuZW/YIDbvPrJTgVF+JkHIfgfykLgVhy4vhxblm+TM2SO3n9mexHGUktySA0JUjIopAFIY+E6H8Kfj+iICEvKatMbG5r11hdze7dglzUb7QXgcL+/fs9nxCCPM91dXX5Y8jz3NChQz2xePE7Ozo6ikKQxCjDnGNme+2JU3nfWdJhxISQRSQEA2KgkOjYm1iwpeDcI0b46oInZJ4Uc89UkxbMOvIYp557jqNmTDdl8mRj6ypVJfto2ciuLXStoxyvONpbXnW0b//Tl735ezfrwGf//ePmPXSHt77jXTqrG4xvHG9UQ3B8ZZSXJR5asNCcc95qhL2y+++WNhBjSahI3bYr0VyqdtTIYbK6Wh993RvNHDvMv588hZ3LlCpTSTGXxKKIUCgxLiFNLd4Q/fj+HhtW9li3r0wWJ4vbSg5p7HbkGZG920kj1QUr1uSmNDa4fv1qM8dNNemw4WxeyAjsK7n0nHGmnT2S2n+Wbv6ifHmHBLGCUI4pies/V/SVuVXOO7pLly4DIjHqc+pps6laIpZPFMbNMPfhxKUn/cjRhSHGVTUZW8O0Mam2nmjenlaPbtimc223Awr4y6tebmZTrc9843sWtLfpM+2UY9EjSFCjvS2TZ1vU1I3HPs1rNmpIih5tbfEcj3p+Q3EJTsfJgTGeIeoVED0tICD3LMMaqk1pqLV0yy67u0sEBOS5l594ou/Pncvin/JnF5Owo6Ggsr6gNukiS8lzYiAEQkRA9JuJnhY8W/S04JcKkTyQMaUxc3hNjw2lSn2igKjXIC8Che3bt3s+pVJJVVWV0aNHy/NcjNEfUmVlpR07dox+7LH5r9YnRFnU7x3/8AEe+4ls1Vbp+EToQUSI+iQhEFEMFu7NdCvavm2T+7btcMDQ8nJHHXeqM88/z9GHTjRl3ChjBxVoWc+O9TzxAIt/zvLl4n5iToj6hSJOPsqrZg+WbJ7osTjKsPXL/eA7P3LIuCnqGxvsaW31SPNe89c029PVpc8rD59C8wJJJ4YRSjmDiu5d1a2ydpzHO9p8/rs/cOMnP+/8t5zCP06nkkJDLhcJqVy3dGSZ796f+/pNPUJXrfKK0YaWVTu2IdeRZzqrWlzw9k9R9V2x6wZhWGrxjg6L1zW4ckyVratyl518Pk372LxWrCTmwUmnbxH3volNGTUkDcQkiHkFsSTEkuFDEkOqq23t7LCpZT+qBB0ixisz57hDyOYKNbNxhu/f9CNHJE3eNucw/7l0lfnb99m1Yb9nOnTECJedfa7TjjrS6RefaX1Z6qd/9i4zBtVb0N5mfLHoiEmj0IUiRvn6R/7U6Rce69ATj7V002O2b9mtsb7Opm3b9Yv6tGCupx2Pl+FknIqiXyYgBESiARFRvyHFMq987WsdeczhxqxdIVm32mt+eqt+EZELj5nh7R99n49+6H3mvv+fRDQcOcFl17zZeet/zOaHKcvEEISQGxCJni345UL0lKhX8JQQPSXqFTy/QIj0RCPLy0wOJRtkBkRPGoIR2OqPqJCmqeeTJInu7m49PT0qKir09PT4Q6qoqLBv375XlLJSdQhBjHpFJx15rEtnDOGD/yGtQ08gRkIQRSIhBEKklJss88E545h9uZ6le0w9ZIqzZh1p+ojhGhsq2Pkomx7jrm+z6FZW7yUnlhPqiNXEagSCXpEYgzB/vh3tbOkY5ohh5T7/jet0lVe5ZcMm25av9FzVOPe4SSz4b2EIagJZpL5g1dYew5PUyoXLzTn9Que//RV85xSmklUW7FoRDRlWLi+2S2tY213hL77NhQ1HmT613ObuTiu27PCTTTvt6OpwyKTjNB56PNs+JlRgUrm7vtSptn2IbV0t+rzi9DMJN1DRJZQlQkhpKwlF1KdiQIhCKReSDoYVKBvs4bX7tefl9vZ4Uqco6jNl4jgjpw7FaBoPw0xb7v8vE2qDv71vnuXtbfqMqSh34qmnuuTU0xx/zOEmzp5B7SgU9XnP1Requv9Be4pl+pwwY5q68ROxB0f72Cf+2eM/+Zm3vv8fUG3uPcsV9uwT6wZ7jmWYjQvxMkzyS8TgaRERMTpgEGbOPNwZV1zl7FNOcPjUyZYsXWvRT6+1YsFSX1/whM2duWeaNX6Cm/7+H1x73zxHjRnj9P/4quMOH+PIn/+7dPt8Er2CEIlJFKIXUNQvBgOCXyrqFcipSaP67pLKUqJfQNSnBvXY6o+o4JcoKyuzb98+99xzj4qKCoMGDdLT0yPPc38I5eXlli1bdrY+Ua+oz5/+5TtYf6d8xTbJBOTRAQE5ggGxJ2iK0cundnL2IV7+ymnsXMX2e7nxcRbOZeNeeSDUEyqIo4IgCEkuZil5KoQSWUQgSUkjNSVDhxY9fOtuFXs2erynZMPuLZ4SghASMebE6IQ5Z5k4qMCimxmJQkp1yeYSO/dVmTa4yrpt0WffcB7z3mnl44v9bBM/nlfypiuu8poJa9jxKOOKfn5np9Flo506udaf3H2P6NmuPvMq6eB1rFrAMCT86MecNmKQ76x5XEOx3OwTJrD7M1QhSchymYIQeyQxE2pThtaSlNGTW/VYwd33ZD7+qQ5/NXmYudtW61OQi8gw7bgjGNGAYzDWxl177Fi90bSaCseMG+31p5/rrGNmmX7iVJXjxqMa3dgkWiAY684H7tJ23/2OHzfGBx5bqM+sWdNpHIMq9z10hy+9+71u/fQ7tax7wn3bH3Hbtd9zWFmVZd0dnuPIIPwsiqnnFTwlRs+UYvrQoU685BJnnX2Bkw45zPBhtXSuZOV9fP9Tqm+4xeFdI318V6WHWnYiRaZPmibe96OfEaO/OuFE/zp3rpDv5C9P4vGVjCKmiRCJCNFvJhIDAiFHMCDoFYieFAwIfmMxSAolXSETQ5l+0QEJKvyRFfwSMUaFQkF1dbU8z5WXl6uqqtInxuj3KYSgrKysPM/zKXpFA4bilJGV3PczSR15UpDESIzESCAJwQFBr+rA+u3ih94ilKEl0oVq1GAcEmKeCDkhRwjkQZ8QcvKAhAQhCkqUUJE6ZWi3e3eUnDJyuG+3rNInCCKijJgic/bJp9K9haxb3kToDsLwxK0LO+zqHqujeacTXn2pHftbnHbZlxUK9aq29Djtgjd79TvO5N5LqMHwgg1LMmPUuWXLVtGzzRh6iHd96G9o+zOxknB0ha99p0f7khFGHxWsWd7uZSdfqTgK2xaRIsspy6Uji5RVo8yuNanbv5h59JFOS9dk9q2oMG53nX84bIqWsg4P7dilT8nTzj9hFmqUdCuoc/t1/23a5Ok+9KXPMLKRtAEp9mANMpQhExRQ7bbbH9GQB+vb9muLFHHWRa/Ebg/c+GkffMd/ubphsAlN9T7zkU/6+DfvNWFQpVNmHumbjyw0IPGkslSfoBQiMRKQIEeMnmlURYU5J59i1iWXmXXUkWaNa1RIIhsX8sgneOgePatWKHZjNE+0k9UNNj1UuXbVamRCIIlBlkVEr3/la/3Lt78u3H+dnr++UlqFCSRdQdArICB6WvArBHkIIgoxEBNZsSTkJHlOLEcglIi5XycGclESo2BAHnLdMfM8yvyRFfwKMUZJksjz3K5du1RVVTnssMPkee73qbKy0rZt22bs3r17oj4hEhlz5BHGVrawfJ7YQB5JPEMIniUE8kAFIc3IMQQJYqpfJClFIgKCXpE8EeQEJIEYxRBJIoFQRKFkan1w8+ZukysbPFMSEcll+syZOYVdj9NEqCiKxZIwomjRDd1K3UUnHT9cxZhhHvjOzxxSnKxpxEh7uh53zctPEbJHKIs0Jbo7gnmLU9Mrevxgy2Z9Cjhl+EynXHyF/+/v36e66Vviws8Lw8naij7ziZIrxo9x/eZ1+lw16yxqHxS3bRV7SEZWyMqr3HpHi4fv7LF9We6JJ4rqd9YYnjaY0FCuYXCZ1sHcuGurB7Zs0pVlQkKxSHcXozDr+KPQI9GJjY47eobzzn8VYxqxBVuIOSEhpigTQyrq0yPR5o2vuNJXvv0tW9ozfWZNniSvr/HX512hac9S5zZOsTzp8MqP/LdLJkzwqpnT5CG4ce0m29vaPFdJREpMUCLmZPqlOGXyoU6//DJHn3y6WdPGGtqEzetZ/nOu+4l8yeOyDgoJoYLi8IRBRe+7o8vG7kMdXj3cdxc96ICITNTn0+/8a3/xiU/x33+h5z8/oziarIHQg+ApIfrNhSgR9QuRPEoLqC7Sk7AvJyemuZAHRL+xQMyCJE1VlKeeR+aPrOA3EEJQXl6utbXVwoULVVZWam1t1dbWJkkSL7RCoaCnp+cwB0T9Zkw/SuhuYft+cQQhLxETIkLw/CI5eTEgSnJkekWCpwWEoF9EEsWAEIQkEJCiEAhBv0I0aEy0aWGb0R01nhKiGIgRkSPHHuaow5qY9x1GE5IoFCPFMhvW544cXGHRrla7vvhDrcVoSanHsnmr1FQ3+cC0BprnUYcxwb2PtVu2rsbJExucOmmmc8+/0HGzDjNt1hChtpv975Et/aikDOOr/MM/dWlYPsbo2WVuuXOLBKefcQjd3yQlmTTFvEeCN1yzWsWuJhOSJkOLwZzhtUqHZpa37XXvpjV2rW9zQBF/cvGFZkwZpeqJhT768wc0TRirYdwQdCAl7zTjmGNJOrERiaggyMU8CiEXQycSiWqMQr15D33d3vaSMSOHsGG9YyaPsOpL/27Yhn0uOuUsX3lwtS8tX64+STy4Ya+1ba0CoueTG1BywPjaeuedf7HZLzvHkUcd7vBR1bRuZ/1Kfvrf3PcT2Y4eAUkFSS1JQyCL1NBdUeavf9Kpq3K60YMq/MMvbtWhT0EIJTEg6nfS6Udz8z/JPvMZxcMpJSQlAvJAiAS/QoyEoF9EgiQXclQFqgLdqcd3RLc93qOQpl4xudyIqg469UoQDIiIfqmAELWXUnmxQtIdPUdEuz+ygt9QCEEIwdatW4UQVFdXmzZtmjzPxRi9kKqrqz366KOTPceRg6rZuYyckBH0igjB06KnRQOCGAkCAoIBEdFTQk4SkJAEIUVAgoRQSCggCfrVJkp7SzoRUk+LQUwQIhlnn3muivpmWtYzJJChKbhnU4dFW+u9blKNDz32sK48eqaLjz/f8En7WXozNRha5qYbOfOcv/f+r/w5DcspbCDezvavsHmNGElSwrQKP74p95UPlPv3Mw/10Xn36zPtkBOMP6KSlhVC1aEUT/fF798n2TDYX8853K071pq7t8WCpUs809DqapeecqqLzz/LORef7pZHF9l/y+2a2xLrcNWxsxk5mLhLCGXIRc0igoJcCZFAEsoxVFBjwF7LN873g5/c4Xvv/5R3TpruM6vX6rNkyUq1m3e7ffse1157t81dXYj25bl9ba0EYkRI9YsZcgdU4fgjj3TJ5S937PFHmjF1svqyjM1LeeInfOFr4tK1sm6SapJK0mHEQirGciHPKHXRVNDSk/jzb3QqxAb1g7f4SajzuotOt3HRcjeu2yIKBkTjKiuMnjmHuxZIG4ghUeiOYqJfEoNfKuSEQEwo6ZVTFqlKqAp0lnlke3DPvE67W9majrA3NFjRut+Plm32uROj6cOD2B2EPEdOgqhX8D8FIlJas5J9Ej2laECCXK927PdHVvBbCCEoKysTYzR+/HgTJkywb98+pVJJT0+PEIIXQm1trV5j9QohiFGvqKKsh45msYgcMRBS/WJEJHhaiPpF0jx4SkCIBL0iAWkQQxCShDQhjRQiCUIgRRpJAykSDGfbkmhwrFJXET1LliDTZ9bMQwk75fUkVQmxxIQy993brbZnsJ6eXFcePdeVJ59GWSvVKKO0scOFp13o2AsHU/PXrPuO2N1OIOiVICNML7dgceptl3X4yDFz3LpxtYXN+/Q585BpwrB29g5i0KmisVbPvdWZ45q8e8EjNrXs06cOJ8w40kXnXOSkYw8x7eTDlI85HEV//753u+OfPuHy6VP9y6qN+lxw1imoIOSCnCQIMkGOktQgjEaCdus3zXfzLfd76IHH7F+xTMfKNcpao7cdNs0jHR3m79qtz+0btrvdds8UpKIoiGI0IGYOGN9U58yLrvSyCy51wqETjB5Rye7lrF7Od7/AAz+Vb8uFMkINBpMWCXkgJ5OICtLYRcwYETwyv+Rv5nLSrFne8P+93p4Jk71s7QrjFj7sY0tX6hcLxB59vnDdjYY1FfT8+NOKjYSeIqHHU6JnCwaEqF8WqUZ5qk9Le+bnq3OPbKerLeqOgyU1Qw2qrzC02KXQtk/VoHITRx+mtnED2T4x9pAEfYI+wXOFiBCUEoqFYEc760qUsm7PsQ97/JEV/A4qKirs3r3b9ddfL4SgqalJTU2NPM+9ECorK3V0dKR6xRiRIMoD0lSIxJgKesWcEAgIBoQgIgj6xBAJURD0SyIpQkJISJAG0iimkSQT0kghkiIJpAkpCijqFRmUW9eTG56WU8o9W9BnsGrHHTOB7Z8QBqEKEY0VVi7NjQmpO3du1qcJJx17jDPOvcKFZ15q0pGD2PpqqvVKFHqC0y+6T972c3FbSSgSCkjIkXQRJlZ4fFGli09s9s6pp1kRdvjashVIkTl39iSK5dSeTsUJlq1stWVjm6PyfRqS4GWvfKULjj/WnNmzDDp2BqEOndiBjbZu22jIpod8+k1n+cefLrCvq8PwigrHHDUJnahCCVVoQgFdtmx/wl23fd/8x5ZZt2il0hPz1TV3y0KZkYNr1Q+dpG100U93bHLHxm1ICRnRgAQRkSjTJxrQGJh16qnOOutipx93tKNmjpEU2lm7kHlfkN9/A8s2CDnqUEMyoQI9hCjEQIaAkAuRUMqEqoxWvnFz9JNxZ3rnDR9y8dlHEda442vfs/i/rnXL7jZf27zJgB59Pvie9zv3vDN49STFXT3i6CDPcmkMQox+pRgQqU6t3pP6wfpuG0qU9jcoJY3yqhrDm8oNKQYb2tr8ZO16i1v2OGB6eYW3XnQRQzJ+/iN5VRRDQSHXK/d8QsiEkJOyfU/Q1VMp5B0G5J60C23+yAp+B3meS5LEiBEjtLS0qKqqUlNTY/fu3dI0lee5/42enh5lZWXbPSVBbndLC41N+oUoCkL0pECMiIRAQIyiXmkgIARSJIEESSQJJEgJxYQCMeQUIkWkSHLSQBopRIoJMae+3OP7ehRLiVXtJc9WQMnZp5xh3JSMJ24X6pEkNGW27Opy2/25P5tUb/vYsS489jXOO3qOqUdPVDZyFfl/s/FmMVtOIRWkpCV27RXSMorV8tAmJAgFIdQyrtbypYkrj1/vz8edaEt1u089tAABmUHFCkeeNgXlYsWpgqN89zvvNHL4MP/8+c/66KRh0qETUMBebJJrFRWlCigzYviRRh03251fvU5tWS12OWzyZDUzJ6AWo9Bu575l7rz1eo8/tMjqZevsemK5kXt2KysxuLbasOGjtQ0tWL2/za3bdlm9cYEe0dMSQkAkIveUcpww8RDHX3qFY2cdb870yYaNbGTHcpb+gs/eLnviAWFbLhRIGjESSZCFIKKQdxJTBDHRL0S9giREkszOvRVuaTpT119e4EunTNW4bz7/9Y++/N93+sWaKiedMN2Xl6/RJwRi5Kzph3rfP3+Ar/wZO9ZoG0TaRkV1JmZBiIEYiTlBr8SzxEhNwcKdvOP2xPhR04SyKkOHBB1pZv3eFvetXWdNe6tnCUGfJ7o6fX5h5kMfvkry0E1icyeVmQHB80mQdKOcriTXUNFg4+52z9HiRaDgf6m7u9vu3bv19PRobW2V57m6ujrd3d2yLBNC8Nvq6elRUVGxygEBkYWPLOOEmQwmlHKSgn4RiV4BCYIQIikhQRoISHPKiiQJSUYhIwR5mgqFTEiDmCYkiZimFHOhkFFAEuVpLkkLFItUduvMgofXpU4fVOW25g36BAf06HPK0TOp65DVkBZS8sD4xB0/yPTsqnXmBWP0jBliT8h97F8/6dZ5q73m1af6p7fcprJpm4CYRTHpERAjoaeb6gqhborYHAQ1lA2mZrBYU2PCqBtVNUVfemy+PiFEMXLG9MOMmD4DmaAc6xw5pdFbbviq4rijsBFPIOoTBSHWCiGKMRFCuV17NvjQP3/PpRUFj+7coc/LLz6X8gl+9vPPWfiLx61cvMam5WtU7mo2NIkGFwqmNI3UNWmI1S0tVu7cZdXjy3R6puDZcnJPOaS6zukXnO/Icy8xa8Y0R40dRNcuNi7gjg/z4B3y7TuEHkIFaT0mBDELCMRIFqWIATEg6hM8KRqQ53oqi9bXTHPqoeONiXfwob9kT4+7mrl+Q4VZM6f7l/lLtXR1SxOyXL+/+cf32nT3z3zqjf9lXzmH/9VbvGVwK/d+V6hAjtqCLEvkuynWJuTdooQYhTxSUXDD1i5TJh1iwvBGP3x4sVWte+3zq0Riguiex+bT+UomHiXc8wAVkQQxeD4xFoS8RFnQ2V4u9iTWtO/3HJv8EZWXpUKg4H8phCBJEtXV1VpbW4UQ1NTUGDRokLq6Ou3t7bIsE0Lwm6qoqLBz5875S5cuFWN0wGNL1lh3c4vxQwO7I6VcTCKCkAaSSEhIUpIolmUkCFEISIhlmZBmpDk1qCXJcjoj5VEIgZBSIBYCxUABKSEEUqSRccHd90Vhx1CjZxStXdXsgCgi02fm0TPpvElagyQh5lRXeeKxDqfUjXbtgqU+/fUfOgIXn3SCd998i8a6OxXLvkcXMkKaExOa6oSmsRhsX3O3lQu6HXnIoQoVg+Shhv2DHDr1RDMu3Ob2r93uiMGD3bN1qyQmMrmjZ06hth575XknWlz+ytfLY5dS/qA0qRRigoSAmCMKOgn1GGLwoInef+UJ1v7genlSVAwcNXWkP7/sUgtuvNXUYqXqmmqz6iuFCZOt7Ory4PYtVi5dqttzJMj1CoieqV5wzilnOemS80w/5mizJ4xUXVNgw0qWfIev/UC2fC2dJAmhgTCCmAShhJiQEUREA4I+IeoVPCV6toS0FB1Ttka473F5WyZpwBDqho9z3T+83oN3PeafHn1Enxj1q68o0/L4Az78N9daVznI1dfd4PKGvaq/+mbqUVcgS8xd1m1RaaJXzB6vcdWdFAkiIZBGerpty+o1FMp87M77NcfcrxURIpEdO7bpqBqpctgRYvaAEBCDXyaXSJNATOxLGvQUemzo2Oc5FvgjKS8rOmxyo7UbmxW8gEIIYoy2bt1q9+7dRowYYejQoZIk0d7eLs9zv4mOjg5NTU2PDB065PHt23cckUYyrOlq89nFg1w2ssbs6V2Szm6hw4BCQhJIAiIpWTkhDdIkIc2oIzREKsspJfa05B7d0mXs0DKHjMxpyygmhEwsoJiTRgpIMxIUcrKMUdV+vrrVYWGsPd30GBD1CYiOHTHDicc10nYtFYgoy2kvufX+aE5D0R1btujGI/jkNW9x+EnL2PBndCOpoKxBTCqEsePs3F/wg69usPS+NVbevMulZx3h2K+fg6KkVEVowqHOv/LlPveDOx09pMk9W7fJDDhx9kxkCBJBDEU9dhEIoYE8irFbCDkhFUITGhCw18Llj5h7/xPuWvCEYwePM6Mi07N7q1986VvKNu101owZNnVm5jbvsXT1Bl35Os8SEkRi1C/3pKiI46Yc6YzLL3T08TMdd9jRRjcmtGxiw1K+8QEe/oV8NyFFA2EwiUAokCAGoTuXxwy5PkkIfmuBpLtE116xmrwqUAqSjGMqtti15Ce27B/idVOm+PLKlfKoXykU/e2//JdzhzS6adN6Se0O3nSGrTu63dYVbNlUsrOz4IHmor/48mc1ttzEI3eKw4IQAwFVRUs2Zmp7huiuTjTHHAHRr5VEMsaMHqlyzET2tQgFYkrIET2/kFEerd2VWdpdKws9yBEQPekJfyTDBleprSnX1V1S8AKJMTqgurra7t27NTc3a2trU1FRoby8XHl5uVKpJM9zv06hUDBs2PDbtm/fcUQulyCX+UVzriWM8qV1y7zv1GDClJSI7pwsJwQKgaqgUJVSkVBepCPT3Jq5Y2n08OpO+3Yk9m+t0FMYY0/rXh95a5vjT60Qm0tCGoQkUowUIklCEoQ0kuakOcXMfQs5orrK4h07DQiIiPrMmX20MLGSDfsIeuUMS9x9Ny2rmwyfVmXJAzv0mTl8ilPmHIc3iSOIG6cKZYPEQr1k+FTX/3idv73mRhPTYZqKVaang738mGPpHKu7cohiMRdiEfucddq5fnrMDMkTa01pbLSyeY/JVZWOO+k4tCOiIMRMDF3SmEtDRtKIcahCl137lrvhpu969IGl9iyZr/2J5fJ9PY4/ZLK2miY/X/igPl+at0x7WrRl3SZPCySIiAbEXJ8Es6YfalRZwcTKkmMuebWZp5zrkCnDJJ3rWbecOz/Dfd9k8x55Rqgi1JCMQgEhiHmQBYIo5EEQRX0Cot9O1CcGAwpBDIk8RmmWE1CMVOS++d0F7uucrrEYPCUEbR1tcvztnXdr697hPyZN1dqS29FQJ68YrbZQrm3PJn/99re68vLTxNe9WagmJsijECPlRXObKcUyy/bs9VzB06LnN/7wIyjvYs09VBBz/YJfIg/UJNbtyHXk1Xa1tumXIke0Hw/4A0uSoKqygiTo6i4JISj4PYgxKhQK0jTV1tZm165dGhoaTJo4UeOgQdJCan/rfl1dXUIInk9FRYUjjjji08uXL39bV1dXVTTg0W0bDK+eoC492t/dtFHd8F0OGxedMiIxrLIoiZlSjLbvy61pZdm2zJbWHloK2ndW2J9XywqDDK5MjB5U0K7M8Fhh5JBplM8VanaSlpNEioE0ISSkCSEnjUxI3PdYYu/8QabOqHLDI4uQCCGK0VOOmDWbsseIKCFklFe774FOU7N6+7s6dGJq0yD3PfywMGaRH359kWUPVvurvz1T7dA6Sgnm+PRX/sm0zsGuOu1wX16z2G0btjj10eUu6c4VKusFzYRuMW8RkqOd/ZY3uu4tb3XOmMOsbN7jqJnTVE0djg5iFTGQUmY0YTB6sNU9D9zg1p8/YPWi5VrnL1S5e5fypGBQbb2Jw0fZP6zg3m0t7ti2TL/Aqs4OdHhaikgeHVCJGVOmef2rX2XOKUdZ8cADivc9qrpsjzOums6SW3nPl1mzhg6UowHDSYJeKZE85mQkIUj0inrlCPoEUdAn+K0EvSIxIJFFJFGQEIOQR7LIoFR5RWZIodqqvZv1C4hRXaHge1//bysXPezDb/srMWlQOX6KUWlBT95u0e4dbmnb6Ywpk9hwu9KWzYpDCYgxCFlEybqOolbVlu3cZEB0QEBA7nlk+k0/+ghamsWNm4RqQgyC4HmFIM1QTDU3J2p7yjy+b4s+ISfqtxK7/QGlxVRVVZlUIs9yIehX8HsUY1ReXq6zs1Nra6vFixaTBOMnjDf7hNkGDRokxmj//v26urqEEBwQYzRs2LBN3d3dH/z+97//Mc9w4+q1ThvbaeaQsVbuGGrbznZPxC5pEoSYy1DKcpRrLVTrzsoMLSs3eih5od2+rm7Ldm/zk4377O3KXX3W+cZc/gZW3EkNQkIaKQTSSECKkBMxpNLXbmkzpWe4vXm7nXkJqRhzB4xR79zjJtD890QEvQKChx7JNCXlbli10pgRI9x4/Y9985Yv+u5H3q11HX/7nn9SO/5osr1C2UQ7d3XYs2Ct048c6j0P3G1jV5c+Czatd8menZL68aKMmBGK2OTCy67xxFe/rvuxlQKmjhtL+SB0EcaQlmGf9ZsWuvVnX/TQw4tsfHyR+jVrVXbnaqvrTBw0WGnKcOv3t7pr63bLN22XiwYEAiIComfIBEwbNMSpF13i1DmnOWnGVKOOmsj+zT74nk+qeGCe+TtbXbd1k4eO/qKj928QF68RxxFT0hLyBIGIgEAQPL/ohRACIoWInpw0UhGoCqTlZJnKChat22JqY7V+Ub9Pv/YaQ5ev8OlPfdyISZPtDTUe27jeY807dMdcnzKccNzRLPy2Yhd5MchLqSRPqOrRvC0qLw1TVsuafftIkXlKNCAYED1bgtOvejnLFot7CDWEgOj5xUiS69gTLYnDZNWs3bNTn0KkR795/sDKyor65Hn0TAW/ZzFGIQTl5eUKSap1f6sVy1fo7Og0ceJE48ePN378eMOGDRNC0NraqqurS4xRbW2tK6+88uPz58+fvWLFiksdkPCLDVvdZ6vjhzYaUz9EZ1qpLI0KWUqBmGaUEuWlkv2dezyyt8P6DS1aYrfnesMb/o4h94kbWqgsCEkgoIAkIUGaEQtUZrQWPHAzLxvT4KFNW/RJZTJPm33sEYZNL2fvMlKEQTRV2ryi3rLHNrmgvtuYrNz73/tX7vjGF935hS+ZXBzmgpef5soPvBZbSYfhGD+/59uG7dsrGT7Exq4uCgVKJY9u3MP2zUyYKVdByMiCzo6tqmuazP7zt/jGK1/rT+rKnX7BhRito3ujO277lnlzH7Bs4Qr7Fi43eE+rEFKHDBuiacJMW7rbLNu1y/dXLNcSc88WEBCJBkT9RiZlZp15smPOPd9phx/jhOkTFLTTvpR1X7H+zbd52zdWO2zEUMYP8/2Fm/T53A+W+eJH3yq0fZLt24WAPCASDQhBn+B/J+oTBBEBUb8cESFSHakJhHLaWLutyyNLeaI7t7q9qCIf4sJxg+xPKhRQQnlZuR/dNtcP2nZblVZYuXCF53Pk9MNMPnwi18+jklAKkpgIIaMqcfOGaE9SaXtbsz5JRu75BURBQBT1ueq00x0+5VC+8lahCgnRgOB5xEgtizbQHAbb2tFmQJAhIHKTP5igTx6jGIPg2Qr+wMorKhQKBZs3b7Z48WKlUsm0adMceuihhg0bZvz48QYPHizGqLOzU1tbm5kzZ16+fv36m7q6ul6mT65fCXN3NLOj2W8uRUSuz2c/9E3nvHI8D59NPSEkpCWSSBIIkVAiJHQXGBN89lt7VawaZdxxjf71gXn6BAGRgMjhs09h8Fb2l1E2ljiUhtFu+9k2Q1p2qZtQdHzjOHuvv9G8JYsVD5vqa4tXGFnsdGVZAaNEewXc88g8unusbevSLy/ps3TVdq2/mKv2qOMk5aME9aSZj/71m337+/NUjGxyclWdd7/sEulho7z9zRdZMXeRuGOfEV2dmmqqzBw8QtvgkR7bu9ftm7faunqN/yEYEPWKiPoUcPLkQ8y++HwzZ5/i1MOnGzG8nJ3rWHI/X/xbNi32xBPtvriQrVninONmaytm3jv3YQccetE1zHm1+J1/EXqIhYTg+YXg1wqeFnJPyYOYEiXSngQZaUYaqCujgM5o+Z4eCxZFy9q7LM4q/P/c4QegZXddKGw/v7X23qefOdN7JpNMkplMZtLrTHohJCSEJlVRroq9K1cRFVDwIgoIiiAdKdIJJZ0kpPc6md57O21O33ut/zfnDCEBgvd6733fF7/nycfmmm2S0UqhtbVqRmuLPcOjrt+8UUMgGR2r+9b2zUieb/m82RZ2dLh140aDY4WrXnwdjT7DT92lpZNIhIIokFnXE/alNlv3bzYuBZIfSkiOCDkqwpjkiDe/9S/Z9pTijjvk80kRlEEgIWWOKE0oEm1N1g9lJjVqvrV7qyOSZMJe3O7/JREhpeSnqfh/WyKlpKWlRZZlBgcHDQ0Nueeee+zdu9fUqVOdfvrpFi5caOnSpbq6ugwNDaXjjz/+xbVa7bcee+yx95Zl2eQ/IZChyIKUSKV2uc/9y62uffNKadNimkdFLUciElmYkAoTUk5TnUarT/7zqHPnz/fYgR3G5XKlJJOUiRyXn7iY/EkmLcdSyhoucMfDH9fZGLVD8sW7HjWl2mxXfUS5q9u4y88/GxUMCE3Y6fFbvufs6XM9uWe/CcmEDbjj7jWuecU2cdx57r3nZv/9d39VfdNur0gVp86Y7+7dB926f6+Rf/igrf/+HWcunKNj4THWDw26Y99ua59epfCjAkmG0oTkh47pnOKKq17q7Bdd4LRlyyyfN4nGPnZu5Ia38v3vcGiYLtYe5KMb2VrvtHDh0S6Y2eHu3b2+uHqVZ11+zgp/+O6/5u0vVe7sls8N0UBC+L8rlbIGmhOtQVNGPbduf/LghlF7u9lUNtlhtllpsmoWZrdVtXdU9ZQjnurrt3nDfruHRiU/rvSsM+Yf442vf52Fpx5v6vY1eu9/zC1rNxp3ytnn8MR9mnaOsgBlSZaZ0F9qHZtpTkfV157pdkQgeWFJRaF0xG/90ptcfNmFyt+/QF6jrBIF4bDkhTWH/TtHbRhdaLilZv2BbuNylEjchT4/Iyr+P5RSEhGampq0tbUZGhrS3d3tvvvuc/fdd6vVahYvXqy7u1u1WrVw4cIP9fT0/Pvg4OCvl2V59cDAwHEjIyOTUkqZ/0BC4bAyIXnp6S/2oX/7vHmLd7HuWBrbRAcKREHKTEgOy0iZNFaIpRV//5ER6cFpzllZ8aY7VxtXSpIkd8SyrjnOPncW5UZjHRfJGwvkbVNwrIdv32HF9E5P7zlgCEP1UbKcsnDmtMkuuvhcDKHEDHc9eofOrVvNnb/IR7dvdUQIScK31u93zfrHfW9/4b/99rsseXqXM44/Qa3W4sHBUR9ev86UjRtcNWeW+qJFPrRtu76NuzwnE3IhKRVIknGlcV15ZuWKi132kuucesoSJy85yqRawY6NbPg6n/68ctVmRsm6MJsnSj7xCBvHJpvdcYwzp1Y8dGCX937vSc/Xjg994mPc+VnFt6+XjqORqCBlRPJ/R5moBtObGGu2tXvUrRtGbO8ujY1ktubTVGuTdWRNWlqanFilrxy24dAhT2zYb8/QkP/Iws4pXvySl1lx8QWWnbzYsqWLDA/udfP7/8XW7z/sQ08+Y6gstOK0007gnk/LwnNKtORu2pNsr0xSDvcbNS5EInlhSamhNO7spUt84BMf59sfVtx7l2whWYEUflTyQ42Sac3u2FZI5SSPdXd7AV/3M6TiZ0RKSZZlmpubTZs2zejoqA0bNtixY4eWlha1Ws3UqVPNmzdvf7VafUdbW9s7du/e/curnln1d0ODQ12eFUHKkJCjQGncqTOP846/fL+X/PqV+Gue+UsyNJPKQJDCEUlIlBkFMSUZHm33D3/f65cWneDWXbvVEYFUGlcIJOdccA4nTyEtoTqdvANL3PHQXZq2bzJv4bH+7dEniJwoSIVxy1aeyfGLcEhKYyKOdtdDa8TAoL58TN0R4TmrekY88qW7veXz73Hx3KOsuOR8f/3w43b1DRprjBrXXZb+bccuz8kckaGQ1CVHBE48ZqEXXfMaF569wpnLF5g9s5nePWx8gk/9NQ/eIe2jzIiZZAuRuHctX/geTw4zo3WS0yZ1WbN1jT9fM6iR5dqrFSOpoVEGZXLCsXMd39rPZ/9O3sVYVFSLpMxKZZZUGpnnJEeEFCZECkckE8qSLJFyBJGQUWW/qg/cPebgwVKZOvW3LJBHu5mTwoKmwuDwsE0D3R7b1W/nQL//yIxak3NXXOCiq6925imnOn3ZCZqrh9i9gVW3ccMfeNeH7jHSttD2au7u/l7jLjn7dPOPmi59+DbRieSIlGgNj3aX9kSrsf5uRyRJ+EmZEFIkUun4KVN86+5HZJvuV/yP31CZTcpCFIFwREIyISUCNUb6Wds/Q97e4fuPPelZpQmb8VU/Qyp+BqWUjGtvb1er1dTrdY1GQ3Nzs5GRkcUbNmx45dDQ0NV9fX2njo2NNRkXCKRAhjpK406cfby3/dE7vebNV9N2p7R7idSzTlZFRpRVygoxipKEhCAFkZfMPtqbf7fXiTsXOP6sir+5Y6NxyWGB5LBAcsnSozGbyFRVFHmBNjfd/pi2vgF9WRhyWCpIfui6c85BFa0ilhh3942362qfZPXeHs9KKRFI3Lu/z9ef3Ou9l13sW3u7/en377F/eNTzRZCiYkLZQOmI0rjjOtqtePFLnH/RJc477WSLT5hF/152bODO90r3Xc/GHhFoxSTimEyektGR5MYNuXsb8zwzaamjfvlMnztzsa5JU3xl3TazDfrDE+batupB2UOPe89d93tw/yHjJs2cRaOf1E0beVGIMgkhKytEKUUYF4IgyUmlUFKWpKCG1iCvGtg+ptqcNNVKZRaiqIi25EMPjvjYunl+d+l8Q6nQ0WhY39Ptrl37bTs04D/ShdOWnez8a6614uwVzjp1mUlTg11Ps/FhPvq30sO3iV1jTOOeYfo65pk5e6733nM3GUouueqlHNolPfWg6HREIBJlaBruMLepyVd27zUhSBLJcwIRUolUOnXuXLes2mjq0DrlL54rb6Zsy2T1jEgmJEdEIhwWFJhS8fVVY/Jstkd6DhhREiakZNw3MOpnSMXPqEqlolqtqlar6vX6orHRsWsffujhl+0/sH9lo9HwQ+E5pcNKlKq4YvkKv/Ibf+ilb3gJbXdw4Hw2PCZaiGoQGSkoM9IYqZQy5DWhlayJssaxy3z95gE3/eNOH7jsNO96+EHjIkiOCCSlTpxz5mLU0SSiRUWBgx6++24zJnXYdGC/CRlRhiRZVKs5+6IV6LRp20af/eh7TFswTWzb5uTZM31w3Xrjwg8kAqXkKzsG3H5ws3u3bSaQofRDKSE1PGuOcMbF5zvrRS+14uRTnL98kTxKdj/Ghm/whe8on35S9BEdRBdpAVJGyhA06lJzi3WVEx2YusCVK871t0vmi/agt49DB/3iucGMLl/95gP23/W40X09nuke8ayXvfi1lFXl1p2yOeStSX0fyky1OUOJMKFMxoUG1URbUKmQCgcPcP/WhhtWs+yaq715zl6eeZiWXBQNGmHfwarfOnOJ1ZvX++y2Lf4jTVh61FHOe9m1zjvtPBedutzshdMY3MXGR/jGvykfvYlN+2UjaCfacFpY3Z18/Ima809e5OOPrzGhNOHkZUtZs0oMUE4mMy7Ik2cOFg7GZNU6O8dG/XRBWRh31SUrfPO2u1U2PaDxpnPkraRpuWwsSQohJzkseU5CRkdub3fd9v0zVOd2+vb3HjUhBZEISfIvfsZU/AzJskxTU5OWlhY9PT3HDwwMXD0yMnLt8PDwRY1Gww8FksMyJFLyrIW1KV75yp/36tdd5/Qrl5A/wIHzpE0Pi2a0VEiIBqkgcrISTWgmWhVNU+V5lyhrYu6ptu5t88uvfZe3nXGGO/bs8VTvIVQkDc9KEaTklJNONP/85ehFm4H+Q5qb5+hvJIeeetg5M2f75LbNJpSkDCWXv+ZVGr1bfeh33uNzX37MSSNjPj8w4ISjFqjOnmL/aN24DAklIojE2v17HBGkRPIjqjh70YkueNm1Tj37HBecuMiMGe30bmfd3XzsXYrH7pe6B1VKtBJTMDNo5CSUSZKIRCRR0hgLi7sGLWt/mrtv5hsDilFSQSWnqPCrd3Io63TJSad4+xNrDRR14yZn4ZW/9AYe+oCsk21b+M4mOl7zGtd2DKk+fj0VIkoqaA9qGY2KA/11jz1VWNtXeCzl+htTtOwYNunia1z9lt/hvddKSGVOrbRhKFM2d9nZf8Bnt23xQpZ1TnP21Vc48dJLXbD0VKcvnUe9m02reeTDfOQGjXWbZANEjawDs0MZRJlEU9jeG/76/qoLjr/Y7Zu2uWf3HgSS6ZXcCWeeyh0fFxXCYYGEtsy9m0pbig7NjR4TwgtLSSfe+s6/9Sd//hbu/YzGH7xRZTJpakU0klIiEZ4nkgkJkWhLvvpI0t51jOs3bTaqJEKWMqUS6fNY5/+2QPK/reL/QxEhz3Otra0iQlEUy/v6+i7v7e29bt++fSsbjYbnZOSJMkgJCSWJFhWvPOcal7/ylV5y3bkmH9uGf2PHtfQeoka0mpDKQhlJhohO8k4paybaRG2GSF2y6iTyGpOX4hjXvfjXvappDq2ljzy8CoGS5DlhwlVnnMS0+ZJtwnLve+9bPPq9W1z2pl/Q2j+seeZcO4fqfqhMKjhhaMCOm2/Ue/t6V3TMkC2c6vwD3RbP6HLT5i3GRYQyJRnyoIicLFGWJIclz1o6eZZLrr7SkvPOs+L0Uy0/Zjr1g+xYz41vlx68xdi+XtUxsir5JMwJSS5JKGWNICXjAklCIiFy1TTK3jXsQY4m8hYE2vj0aupTjrF0/nHecv+t+ouCQOKtf/T7qqNbvfXX3u3BvVRWnOvqP/s9l7Zt0HnX+2jF5JxG5kBP4aHVpW3dhbVlsqXo0mmGljptHVVdnTVDo1v93lt/3bxdj/D0fo6pyMqCNm5bVXewNse0YsyzZma5lRdf4ozLLnL2aec4b9kyTW0jHNzC49/ly19WrnlCeYgc0UalM5halVIiJcokskIEQ2XV793esPLYFb6/e4fPr12NEDJJ4dIVK82d1cXD36IFBbKgSOQVgwMVHZUWD+zdZUKgzJCQjGvHG1/+On/84X+2YMYk5T/8nvSZD8gXUrZnspFEJLKQJYeVnlVmiRSysWAm33yybqjlJD2Vwk1bNpuQkiSRjPs7/7eF/2MV/29JRBBZaGpqlueZoizzgYGBC9etX39xf1/ftXv37l3uhUSQMooCpXEZXnzKi133spe7/MXnWHBmC7Yz8JvS2htEgQqpFiIyUkFk5C0imkU2hZhMZbLIJ5FPpjad1EWlU7SdhIUuuuwaC57Z66KLz/b6G+9wRELyI1Iy7qLLLsV0YZptu9b53Kc+6fLBMe/4b7/vkpNPtGN00I/rbK3auXGtR3e16pq60Jc2bHTXfWt0NDVZ0DvJ6v37yEiScUVCQio8q6tSc/kVV1tx0UqnnLLcWUuWaMl72b+d1d/gk5/Q2LBbGqVaI1ppmoosJyUSCkRBBMKESJ4VguSIQKCWSQiHRSAoQ2Ow7g3zedOK3Lvu2a6/KExITGuuWbFomnf83But38tvvO8jrvu9XxV3fYB/fKvtY9zby54nCvtHkw2NqWrZTG0paW5OlnS0G8lKG/t6rd69y7rufm1NTd46Zybfeoh2ImWUY1QqDu4Lc1prblv9tEtPP8Vfvv2vHLdsqVmdiZ7dbNnEv/yt9PhtygOlLIhWsnayDkRGEQiKUoQjIkSZkwqtnZw1uWrtgYMeOrjTuExSKo274Ior6NvFmifpRORSo0WkYQODyYGYrLXK4909JpQOK42bLLzpTb/uV/7i7U5YMI3bP6J40+9LB4ZVFqEWop7IEkKW/ISszBUlZvPwlsL6g/O0HzXfX976PRMCiaR02AfxhJ9BFf8PiwhZnmtpbVHJcvXBgSnd3QevGBoaWrn/wIGXDhw6NM//TEpoqOLKs692zRUvdeFl5zl+xWTytYx9mM3/Ig2XVIkgVYKUkyUq7cQksk6Rd4qsi9oMKeskmyzl7aLSJSozldEqy89S1+rSSy/UfNcjfuGKC/3WrfcrHRZIXtC5C+ZKtV59h7bp6JjtDb/za+b1jXnt5RfrffB+y9rbfGPNBj+ue6Tug0+tkZUV9SxTb4wRHBod9fT+fSaUfkQFZy07y4tfcrUzTj/VqacsMXNyye7tbNnAR98pPfR9jUPkGVkrlS40IVUYC2WqizIJPxCIEIjkf0FSpmRcRDgikaiUmF5z+93rndN5gt857VT/+OhjJlSb/Pqv/pnXLlniAwcOMrXNV3/+LKu/9pCxGZmtaZKh2iyToqalWlo4udNYvWHbcLcn9/bY2L1WofB8V664xLwprcqnb5G1oyzJGazndqQmo4O9euqFr3zm85Yc1cVH/oDHvqXYMSgl8irayeYTWa5MQUrGRUkgpWRcRHhORipJDWceU3pk46AzZ86wvrtXaVwybtFZy9jyuDRIMRWJStmgg0d3NewwUxRjJD906jGL/PJv/55X/sIvmDGlgzv+VfnnfyGt3iOfTTqeso4ykcgiI4WfkBJlks/JPLmj4eb1Ux21aLl33PewoWKU8Hy78DY/oyr+HxARKpWKiNDU1KSvr+/E7du2X1bUGxcf6N7/oqHhkRY/EAiU4YjkR8yuNrvssp9z1SVXOX/lyeae3Uw8TvHvbP04A7uooULUkDKyZimbJIsmqdKsqEyX5TNEPhld5F3KpulUJomYJLIOEU1ETWa5jbs3edHFlzhp/U6vv/Iif3TXA3aPjoioSKlA8kIqee7f/uqD1v31v6qWhambdnvleed55Q03m93Zqtrf56GDPQghSQiHlYyUDitIDbKgdFjyrAyL58xx+UteYeVF5zh12fGOnTODnvXsWMcNX+X7X2dXv9Jh7UQH1U5HpJwMjUQqCTIZAolIjgj/seSICoksFcalLJEVUiILTK15371jbt44w0vPmmnT/i2OCAcOHbJ85UVO+e9/6GNf+KSH//YdDvUOyReeoivl5jRVjKTCrv4+9xzcb+3aXqn0EwJJIHnly65l3yrW72IWGiWt3L9z1LZ8rubRwuxZ0xy/6pvSn/6D2LFfmk/MIM9JMinlIgUNsiiUQRlkkkgIRyRHBCmSSOjIbN5fWlCdZJ8Bz3eU3LLjjuOef5EqRMqkVFAWtNVs7qHY3mfb4D6tzS1+/Zd+zWte90vOWLmMvnV89+/4ygcV23rFDPLjUQZjZCkpMlJGlEQkEzJSlJQVIZhXeHJLww1PTHX08Wf5+0cftb5vn1wupVIZyQ/8Mfr8jKr4v6RSqWhqalKWpSzLWkZHR88fGBg4f8+ePdf29vYubzQanpMhIUlIDksmdGHZomXOvvQql59+gfMvPl3LogbuYuz9bPo2QzvJkaE5yJqkaJKiJqt2Sdl0WTZJyjvIp4p8iqhMJp9CTKLSKbIOEZ0oiAamYr5v3fYlP3f5q/3q1JnOvuwyb77tDj2jIyILUsNPF+7atE3T3DkWpiFzOlpMO+dcH356rd1DQ3YPDXl0zwHjsiBQpAwhFJJxiYSUjDumrd2pL7rKeSvOduXZpzjxxEWMDbLrCR76lHTfd6Q1W2QFWtCB+WSCMjyrTGFcloIUJGSJSKRkQiSESH6KJIUfEZGQKJOoJVpzkaE93LhqzMc3TfHWS0/3P+6+3xP7exyRvOXCs/3Bm3/eFz76zx646XsWHrNI19wWG3sOun9ft/X9A6TCf+QPfu5VpvUN+pubvmsQSy44lYeuFw1SlgklbRXPbG1Y0DLFM0W3R7ce8Nk//gtXXX2CGTPGRE+fiJx6KSKJKEjJEbkskTksSFkSyREp+aFUMqvipoca1uyZZ9EJk3zi+0+ZkAdFcs6K88yaM4O7vyNaiSJJgRoOlZ4+mDnp1S/3Wy97hWXnnaWleYhHb1C+7beVd92pMoaZ5MehzChzgpDIS3kEWSZFiZLIyJNooCUxLXfLww2Pbp5lwaLTvOeJRz22bw9ZKMrChGTcP+PzfoZV/G+KCNVqVXNzs1qtZnR0dFFvb++F/f39Fw0NDV09MDAw2Y8IRySUntWBk6cfZ+mlL3b6qWe5/LzFjj59IS0HcQt9H2PNndS7qVLW0EqWMvJO8ilS3qHM2uVZF/k08i6yaZghqp2i1kF0EM2KrFVSU0lIpCiERaj64z/7VZ9597/6H6ecaLh9sp+/+UalwyKkMvmPJeNu3bnLcZO7xNCgdWs3mhBBCpREKLNEQiolJEdMiYoVK85z2mVXOu+ME114yomasiq9q1l9M9/8U+WaR9nXkFWJTmImKQ8SUogykEgIEyLCD0UyLiWHlULmJyRHhOdEIEQqkcjqdKA1p54Z7ml4al3pmZ7kwchs3d3mLeec5rNPPe2J/T0IJG1Zrt4Y88d/+t/t7B7W3drmq6tXGfNCQkXSjn68/uWvcfzSE1x9xQrDB/a662/eq4aj5sxz4rSpPH27aCelIEOjyZPDobNSWHug27j2v/2SGRcvU//VRao58kQWfij8VAnhsEAEJdHB/asbvv54hyVHz/Hue+/XXa8jKJJxp1xyHgNblBs2yNqQEmHCui0Ni37hz7z5T/6E9bfx8Z/XuP2bsr2jsjay2aQqEkUiy0tZlogKkUwIZIXIECgKMsytGBgqfPF7he7hJaYsmOevH3rIqp79BMrkeW7Ab/oZV/GfkOe5SqWipaVFpVKpHTp06IKDBw+uHBgYuGJ0dPTckZERPy4iRHJYUmLepHaXnH2Gs1astHjZGc4560Rtc6diCOtIH2fPrWzbJqVRSqKCpppUrUpVIk0izaLaKVUnEVNFTJaqU0U+WWRdZJNFTKbSooxcIFIgl4QiDsmjWTjJ+q1Pe83LXqn5sbU+cvEFvrp7l397/B4/lJL/FSGTVKzv6UdJICEFMpSkRGFCDacvWuKcl1ztlLPPcOkpS82d3snAPrbcwyf+UXrkfmXvkKwgWsnasRDJhJQoy5CCTBIlAuGHwvMlIqQUypTLIgmEw5LDgigdkVGWpEROtGa0VYiKgUNjHlxf2N7d8GQ9bKlPMrk+WVvkhpuaXXDcNHdu2uKGDdsRKpJCxYjCP9z7GMlzAonMEaUjJks+948ftviMZfb2jjrrwrNk/U/YuXWDP/yjP9Oa1fTgV665VrXa4On7aEPKqSab9g7alc3WXCnt7uv1hqtf4ZWvuY6/eInKAKYFyQ8kPxSOSIggkiOCVJCQoRU57Wec751/8Wa7N22y7ovJ9+57xpqBQeMWyl32il9k7UOKQbLJKJFQcPSsqjdVHlD86hJp625ZhcoULHZEqhoXGiJPZH6gQYQJWSJPCIrErCrtNfc/OOj7q9s0TVlurCv31u/fZf/oCIKUPM8DuM5/ARX/E5VKRaVS0dLSYnh4eN7g4ODlfX19K4eGhq4dHBycVpalF5I5IhKFZHJLs99fudypZ5wkm7VI2Tbd/j07feLTn9eo3ercY/ucs6ygICEClQrRQtZJPhUd8mq7lE0im051sqIyVZ53ibJFEdNEbbIsy5EhR5ASUUhBZlgu4Th0+uBH/s47f+1PXDtlikuvuMjbHnrM0z19CEck/6tSlLLUEEIhSMkRJUrjTpw8zcUvvtopK85xzllnOGnBPEYPsG8jd7xHuuu7GjsPyhtkNaKDfDryzIQUlIlIpBDIwxERXlhpXHJYOCwhl6WqFCNK5CoiSspEJHI0FTQHWVX/odJDWwo79pa2NpLHsw5tjWk6xpqUraVFk1tkMhsHDtl0cI+vbVitvyiMC8mzijKQ/FAEkYwrkx/IUbjkwhVe/Gs/z1ffY2FTXfHnf8jax31sDWXlJINpzLgLrr2KdfcpesnnoV7QVfXY+lEzqzNs37Xb5OZWH/rSV/jK3yu++x35cZRFCElEkDISIklIWSYrMso6WSEqaEZLRtQ0BpInDoxavZlK60bf3fBPWmbN98bTjvHrK8/wxPTlph93kgtOW665OmbsXZ+Vd6JCEggpo6bOw7fRhEUhRVAmKSMqDitEyolMnpVEmBDIcrKQKg3KJNoSM5tsWN/wzRtHDAwsNH/GMW45uMcXn1llQjgskTzrIVyEMf8FVFJKXkhZlvI8P2pkZOSy/fv3nz46OnpFf3//orIs/e8YLUpP7zho96477N/xRVv6hgxh+pxznPHy/y5fej0tdzNSwxQpaxZNbWTtmEE+lZgs5VPIO6l2UJ0s8mlEi1CVqyBHgZKUUArjSgwLM7HQ2s0P+Y03/pYDdz3o3eecZkOeed3NdzgiEJ6T/M8FKZRKzzep1uzyK15kxZkrnX7GKU45baGOGGLfXp75Nh//tGL9FmmYrErWQXU68pAiE6XDMkpEgWRCCi8o/FThsIQgoiSNkgrKjJaSGiqBZt39DfdvbdjZk+w+VLe+mGQgn66rzHVmNYvbW1XzZOPwoKcO7rd5/QGHSi8ooWFcQ6tQjdBIiSwzmEpSOCI5Ihn30le9ls23GX3vOzS1krdifmbPKmZ3TXbDqoc046xjjuW2T4kmUlkRWQNVd/ZVTKpV3b5nnz/5qz82afRhY//yR2rzSIFIJESiqJIy8lGRSqFBR5WmgrLiwGDy6I7Cjt5Sb2/DtqJNT2WWlkaL1u5C7cBee4Z2+ObBnf7q917i9W+4kF3r+fgHlA9+S3VsVMwOUhIOyxAOy2h2WCILkWUEEYlIhMNKAlmQBYEsTIhCNJfMye3bWfrO10Zt3jnblMkLmF3xV4/cb/uhQQRZInm+7+MKjPovotLc3OyFtLS02LBhw7Knn376lV1dXXPq9fqclJKIkFLyn1HB8NiYL63e6FlXnbTYR9/+MXNffhbeT88qqWcalVmiNlXKu6RsMvkUYrLIp4vKVLLJZO1UmqSoylMmpZAQSoxJkRyROaIutOJkQ40eb3v7b/jW33zYVVOmOfdFl3r/U0+7f9deggikkFKgRPK/JiGp4Yzlp7viJVc57fSznHXKUjMn1+nZytr1/PO7eep7yl5Sg7yDvAvTSCmXIiQNIRNl+D+SHBGOSIkURKLWoCkjz4nQN1Tz/S0j1vaWDvXU9Yy02dc2Q2TNplWY19WuyJJ9fT3u6tvnmS3dRou6FxJCkoy7bskip8yc7K/ueMhlZ1/kfR96r4Udo9Y//Lh///BHfe6BJ2xvJJmQkIwrTcLKlefxwKdU20mzQmRJb6OiapK8HLN+dMR1K843fXYTj9wja0IUxo0MjlnfmOSY9swWHHjiCZ6aq9qKKpEyshBlopFoGaO1QgT1sL0v3LNx1K5BBnqS3tTuYGUaWrSlMe2dNTMqNQcGBj012rBub7cDQ33Gzb7xSStXLuZrn5G275HNwBRUEoGUiEQgD7IMiQyRCEQiEoFAIEcksiALE5qSet7s1rvGfP/+NpPalpo2t8VXt2zw/S07HFFFSVl4nk/jF/0XU8nz3AupVquGh4e/g++cdtppDh06ZGRkZGp7e/vx69evX9LU1LS4KIqZg4ODR5VluXR0dHR6WZbKsjSudERIMj8QQUpOas9c++JrNV1VMHYVW75H63m0H6WstMuyqaIylcpkTCHrIG8l2omacWWElMhTXUhEIgpShiBlwgjRjpMkff75U3/vo3/x9+Zt3+3PV57nmeExv3jTnUY0iJyUZKmUoVAqJQKJDAnJj6rg2LlznfPil7rs7POsOOMUC+dPZXQT29bwzX/nvq+zd1BKRAtlJ+aQl2jkREkkoSQRDouCQEIKhJ+QEElCpFBkZIgyIaigKCmCpqA1p1LFmKGe5Ja9yere0sFDueH+JodaZhmqtJvVXDOlM7RWw/b+bg8c7PPEhtXGisJ/5KyF89Sy5L6NOxWO+Lk3/pzXvuFCr3x4n0UvfYOmuz/O2sfcfdtexqpmTppq+8GDEgIpgpQcs2iBhXOm8W+PyVpJWYXO5NsbxuyoTjIrHTLu4le+lO5dig275dMdVqGt9NTmwtGV6QZHR4y78Jd+k/ldjKGKBpFXSQW1Qk+Z+8ozDTsPJfVDzQZTp71NXVJWNbO5TUe1Kq8M2t3T79FD/Z7c2mN4rPDjmvCbH/s6Zx6jvPUTsvloDyJJmcNCBCkLAhkRSYpMRCIQiUAEWSILAhkCEQQyzMzd83Tdx77a6bqzzvXN/Vt99Y4HTIhMOCzVpUAyroE34xP+C6qklLyQsizleW7c6Oio4eFh1Wr1YHt7+30Rcd9RRx2lubnZ+vXrTZs2rZpl2XF79uw5vqOj46S+/v5Zw0NDc3BqX1/f0QUCgYSipcOtn/myL3/xPT71rfPNW/4X9FWpdSgrU0Q+GV1knSKa0IE65YCkgSQSgRR+IFBBwqiIKViq1ONTn36PT773I9LTm7zhhGO0X3ixv3n8Kev6DiBDTiqNKxBK4QeSCaXnLGypOfvKa6w8/zLnn3Wyk5YcIysOsP0pHv+g9C83Suu3imGiCZMwh0hIQUnUgwxZkhLKTBiXEH4oEEh+TCKSMjJlkJelkFHmpDotifaMVKNOX8+Yh7eXHh0srR8O1YFO9ejUU2s1qbnN9LkV7Xmyrb/PfXt3eaa313DR8B+ZV6k49fyLnXHuSj93xbn27N7skQ9+xN5t+6yv17Xg7PMvYvU6S4tNij96P/c8YnWFrzzT5pRFJ3i4u9+4kIRAMu6qy19O6pHW3iXaCOMyT+9kWvtkG3ZtNu6i8y7gka8YlyoVqUiyauamA4WumOTOpx933Wtf45prruUvl+k7xEDZZt6sxPAoOdrDn93Q8Ojo0Y6f3m5KR01LXtMVw3b2HnDz/t3W9w8ojPlJgQyFJnzrxrucc/ZSxa/Mk48ckOZkFIkskxBKKc+kCCLJMoeFiCCQIRBBnoiMCKIkCyIRiCBDqlt8VMWihZPd3d3jq2ueMS5UiFJKpQnJuLvxWuzwX1TF/6KIUJaler0upWRkZERZlsbGxqSU6nmeP1Or1Z5ZtGjRN7Zs2WKsvd3KlSvdd999/7RmzZrfcFiekkJu9f4+9Pmnd71fx7xjiWFla6eotsqjWWgTpqJdo77f2tUPq9ZKC4+drVptkZIfk1AITcR0THNoeK3PfvIvff1D/66+eq3Lj5lvzqXn+bdnNrpz7e3GhVBRKlAKZCg1JM83Reacs8504hWXu/isc1227Hi1lozBvTz1Xd59k3Ltw2J/EjkxiZiCLCc5LKQiEUkgMhNSmUSEiDAupSQiTEh+uggiSGRlKYtENUR7RhaUFd3dDY+vL20cHvPgSGZkbLJJ9U49eVWlvcPU2TVFvWFwZNgju7Za19ttqCz9NBlO6Jxi2YXnOP6s86w46VQrTz1Je2ud6XU777jfW/7knU6a1KknwrgTTzrJUccexZ//Lg+sFrNxcuaRp0vtU48yPDJGqosIkZJSIpnw4mtezKqb2YejahRj1Guy0Q4z28LH9x2wePYcyxd28rVbZU2kSpIVBY3Mo8Otqo0RRWuzv33Pe234l3f52N8+bcOS2f7sFa82b92/MThEO3tHQz2f7vWnnuCWNU+7Y+8+O0fHJD8uECg9J6Ew7nevucrll81Vvu0s2dg+jq5QFOSJjHBYFiJLQpAFWSKCQB5kCESQBYFAFmRBIAsiIytJzFpecWjhPjsebnZcZ4f1/YeMSyn5gTV4Fz7rv7iK/0MRoSxLY2NjBgcH9fX1qdVqZs2aZcuWLbP37NlzpcMSCiEJ4xaffbqL//SlGJbSoKiWIiYJ841bv+ZeG55ZoxIVtY5WJ59+vGq1IqlLmkSUUiqJUmgWFqLdpp1P+fhH3umOz39J1+Y9Ll64UPOlF/rm+nW+f9u9jshlQijUBRISCs86a+4xzrv6KsvPu8DFZyxz9Iwm6kNsvot/e7/ysXsVvYOqY2gm68JClJmUQpJkEhkpJWUiS4kI4YgSESWCFIQfSI4IEwJlmJBKoqQStAUtOUXF3t6GR59u2NvPgyNhf32ySWmaLAuVjlYLOiuGGiMGB4dt2b3VV7u7DfrpKjh93tHOXnG+Y85c6uSTT3Pe4mPV2gqGh9h4H1//KLsfcv2tu3zkUX7u3NN9q7vfgbEx46675AqVsT3KnavFErIUVJus3193UrXLA/u2G5ckReawoEymdzY74aQpfPZ2qZUUSdbEgwfGrE5THG1YicuufDFZRbn6SVkbUkkTO3ppMVU5st9vv/pae775ZZ/5479yqMi9+b1fclrnWo2bDqjMDKZlvvt0QbXL41s3+Pa2HY4IBAIlEhKScQuq7V712pebMrjHp791q7Vjpbvvu9fgW39F26SDHIUKUU0mRBDIkCGSlIfIMjIk5BlZUJbkBc0lRU5UyBJZIkMEkYiMMqdSuOT80pceHXXOnAXW9z8tKT3Pp/FZ/3+g4n9TRBhXFIV6va6trc0JJ5ygtbXV0NCQ7du3L9i1c9cDA4MDMwVZqikVaHjxqaf47Fc/gwJjIo5Di96e9b71tU86cGCPatOgpUtOct7K8zS1tWEIw6KsSoIYlsVMHIVRt997gy//02c8ccPNpgyPesmi4zSfc5TPr9/q4dvu9JwMSanwfHM6Jrnyiiuddt45zjr7HGcsnCfiEHvXc8ffcO+3je3qpaRWJeskm4bISYiS0oRAiiRJAinIIhMpPF8WYVyZEA4LIgkVRYRIhaxAKqigKaM5I3LbegsPry/09JTWDiWrTdJVTtXRqIqu3AmTa4Ylaw7127xjqy3dPYa9kEAybtlRx7jula93/MmLnbJ0scXzpqrEMN272LGGj7+LJ+9RHqzLMuoV/m4T39s/yZuuXOlbWzf56tr1CCSXvORKnn5E1o9OhyUH+sN99U4runh83QHjIiGFJEfDZWevNK21XfnMY7JWCiWtmXufLlVbZ9jXN2jcS655BRsfVT/U0DSLMiX5pIpbtpY6y2bDk1s8dM+9dt9+t76u6ZqaMxeeMJNvvUelGS1BE08coNE82c6D2xwRSEiedXTnNFde/CKLl5/klDPOcuFLzrDmobs9/u6POKp9krXdPe490OvG0SVecdGF3PAXtDaQmZCFCYEskyp1RVaVlyFijBzNQWfGlBplxcDmhpYKeXOQgsookYggy4ggMnqTV76o5u6bDupd22leW6sdg0N+KLxbshZf919cxX9SRCiKQlmWxlWrVTNmzLB48WJFUejp6XHgwIFZ69at+x5myhyWKVNC4ddedKkP33A90YoSB93+3S+55bYn9fX3mzp1hp977UonnXw6WnCANIiSVJKRmYd2fYfW+8IX/s7tn/mqnkefcFQt86pj5utumuSjazfa8vRqP6k0rkXNReetdPHllznttFOcfsZxumqD7NnJutv44mcVa9cqhqlUyVqoTUEVGUqkICUTUnhOknlO5rDkhaWKLGWkktSQKigzeTXRiiyj0Wxb76i7NjfsHmawP1lrktHaLNNSpq2aO6m9SaNs2HCo31N7um0/0GssJc/JCIeVZGSJsnRYsmT6LH/9vn9x7euuUenbyKbVbLqJz/+7csMTGn1EotJENJNNQ1t4al9Sjw6/et6FPvjY4+7eu40IUjJ3xmzHnzCfj7+bFhToCE9tGzJmmoONAb2NEeMyJEnSMO6aV76KvWvEjt3MIC8LsmY7+0qLOif54qYNWnH6ycdwy1+qNqM5lxclHeHW7tDW0mHd/u3u27dfjgJXX36J2tSacscq2Uy0lESz9v4O+w8dcPfuvY5IFk+f5cqLXmLpWWdZdtZyJy1ZpK1tmKH1dO2y8eu/4QNv/qoZM49zV18fAslXbr3JK1a8illHYRsRCCLIghQEERWVHLNLOoOyYmR/1RMbRj2za9iGp1m26GqvefV2+p4kVclDyhAVkQVRSpFEI6Op7o2/OuQf/3ify486wSdXP0ZCeNbXcA2+7b+wiv9FZVmKCEVRqFarsixTq9XMmjVLe3u75uZm/f39hoeH2zdu3HgbjnFYlFVJHaX3/e7v+r33v9+4LZtu9tnPfNuqx7aqpIoVl6zw39/4Sp2T52AXDjoiI1XJphIzMeDRVd/z+U9+16qvfF2+a5+l0+c599TlHuvv8ZerNukfq3shSxYsdMllL3L+eec679zTzZ/SzuhOtjzFpz/AQzdxkDIRbeQdxFQEipyyQhqjTH665IjkfyqhLJFoLWjNRCTG6rb35e7bVdjWV+g5mNmfOu2rTtEUzea3VBzf0eRQfczmQ31u299n85pupeT5misViyd32dhzyKFGQ6QkHFZQOuJ3Xv0L/uGLn5IfeIa/fhF33qoYQk7eRtZGdXaGXAgpCpRCmDMlmdlRsb9/l7v3bkNGXqUx6rqVK0xrHmDDvVIHkdBa8/TuUac2T7b5UJ9nlZ6T49RzT+fRT4scTYGwY4yn0yTLU8PmkSFXnHGKaZ1NbHhYTKOsFbIslANNqqPN8vZk9YH9xhWOeNVLfo7ezcp9m2ST0Rnu3F332KE2ly47QXbOeS4472LnnLPc4iVHqzYPU2xl5yPc+T/Y9x2axnzvNr56AytOvsRXd2w3UpRETiqsO9ijPObVsua9yh0fF80JmciCLDMhJfKgkztXce/aZHgXje01vUNTHOitmFHtdPGbrqH9JuXYk7KsjlzKQ4qQRU4kKQqyJA4UTr2y5vzH9nj0o10uPPo4d25Z78d8C7+Az/ovquI/EBHGpZTkeS6lJMsyc+bM0dzcrF6vq1QqRkdH5XnusMozzzxzR19f34kRpBSSuiq+/L4Peenv/aavfOVDvvDPn7bvwIjjFi/327//q1ZcdDWGsI20nrJCViECR5G16+5b75vf/KQbP/dtvfc+YJqqC44+ljMX+s6WLe6590HP14alRy9wzoUXOG3xUqeuuNBJSxbIxnawbx13/RN3foNNu6Uq0YxWzCLLkHKlICWRSikSeV2k8JzwQ5EckUxIochMyEskhB9KgkoSXRXqDXt7kzt2Ftb0sKe3QmOynmqbolI1f1KHmS1hSsmWAz2+u+ugNX19Ukp+VBBBKo37s9/+FaeNDXrbZ7/qsf5RgSQkybhP/usX/eIvv5oPvUHxqc/JOzGVfIrDMgJBlBVJKSmFREpMavIPd4zZ25hncjbmiJJGw7hLX/oidm5U3zWqMjunKBgNNw+2Wz6t6pF1+x0RkuRZZy9e5vgZM3nyLjpRCabkHls7or16tCGDxl153c/T6NPYs1FlMlHmTA63bh7WVJ8tlUlviUCiBeecfhpPf10lRxvauWNdiwve8hF/8LsvZ3AtwzvY8T1uuZcNtzF0SJmRTWXLIB/7Lge3zbXitKVu2rPVNzauR5AKXTKf/dq9stNmcfB7ooOUMqnaEFkFpciCkpiZeWZf6bf/uuaEfJG5k6ramnPtXexJA57Yu8O+g7vMPHGhrMURWSJyEUQkAhkikSpsb3jTW6vyrZvM+v5xtk6aZUvfHoKIkFJy2GewAr/mv4rwQ5WI8EKyLFOv1z1r0qRJRkZGjIyMaGlpUZalcWVZamlp0dXV5XOf+9yN+/btO91hKTksWdjR5m/f8keGh3qsqIaR6TO94hfe6Hf+5De1TzkKe/AAqUaZkyGfhuk45M67vub6f7/ZU9/9vrbt2y2ePtmMpSdZM1L4yLpNtg4Peta8thYrTlvu3DNOtXDuXJWO6UbaO5y+bLEF2+/mHb+sXL+KHqKVaMcCIoKUUZTKRKSQUqmU5EIIPyKFn5BI4bBwREhCSH5SEnlJc6sPPF66ewczshlGokl3U6t5k7tMyWgyYltPtxu27LG+f0Ch9KPCEckRiZRMrdbcctuterdtceNfvt1ISsaVxiXjvv7Nb7vu2qsV/22JeHyN/DjkQT3IwoSUlGWSRd24lJIINPPMwTE3903x84u6/NV99zoiQ2FOVnXeOWdyw7vkOSkrRFtmTd+IoZirX2nHoUHjIiMlpAylV730Olm5k82PMwNZoiv3xM7Sgmq7ew5sM+7yi1fyzBdkgaaMMjE1c9sdDXTY13vQuCxRYsHMWY5dOIfvPcY0NFEfSH7h2uPNP+0+PvN3yn1P0zcoc1gzOkjTyNoYHWt1w21HmZMWmblw0J/df5/tQ4fIgyKZVqt44LHNjjmxVffn57jv+wPOXDnPjCm7pEaQZwSCSCUzeeg7dee3Lrb4uE7vf+Ahu4rCSKPwrMee2WHZ1ScxjEC1lKWMCCIhRFYhggipKMVw4RX/mLv/1zZpeew4bx8dcWikl8hElFJKDnszLscbcbefQREhy0KeMpUsU61kgmMqfop6va6jo8PixYullBRFIc9zRVHIskxEGFetVtXrdV/5yle+sG/fvkv9mFefcqLtn/+c3d0D/vVTn3Xi61+HDFvwAGpoJTrI5yCs33K7b33xFnffeKeRR582p8hcdMzRxs5Y5u5te9z9wONG/aRXLD3RK888RffIiIc//Sk9kxaY9YZfsvSL7+TWbzCJ6KTRFfKMlBIlWemwRIQIJETIBMn/XASJKEsTaqSSvJ7IQxlEEMlhQQSthVt3DPmzxzr9+klnq2Wlshgy2nfA9zassrF/wKgXkpkQSKXXn32CS6ZM9rYb7nflz7/BjFkz/cFb/kj/vo3eft1vWzbvaKsPDXm+f//St1137YuVr5wr27VLuYRUEgWlJFISwrgQxoVEIFDL9XUXupqaPXlgv4FGgcyzVpx3tplTm3j6DlmXI7oqHlo15qR8mr6xumellBxRGnfGlS9i/UOKjKyzSRSjGvXMfYNtTuyou3/nPsd0dThpbhc3PiimoKmZbIRIevtadbSG2zftNa4USK64+CqV6TXF3vvlk9Gcq0ZhYe0J6Z5HqZB1YApFjshkMiHI6vIY8+t/dqxDa2b7q3fdZvvQIWQUpVmtTW67/pvqQzv91oUvseaJAZf/4ttdvWwve/5ZVKtkJZFMKAo6WvQ3kjRW9/E1m2waHfNDGUqeeGY3AxfRNIW8m0CUCAKRkIgwoSmU3bQfxTn/XHfsW9ab8cAxfn1rbnDsoHERDgsppWNwF76Ft+EJPxtmYkHRKOaPKadXIp99sHdsUU//0EtHGun+ysGDB/00LS0tWltbjY2NGR0dtXz5cpMnT7Z9+3bbt2/X3Nzs4MGD1q1b95Hu7u7XeAGfvesh73rtG/zhh/+RSZOwSjKKJHTgKLTrG9zgpps/4bYvf9Pa2+41ZWDI0ukzdJ14kgcHBr1vwwYHRkb9UBApjEtZEhE+9djjPvDgI8b95eve6IOf+xR3/ivXf4PZaCJQLZOUMiJJJSmIZEIYl0ikcFhmXJKkjCwFCYEikUpqaEZT0NRs56aGgSFOmJ8xMCrlIQnhsEBCc8UTOxounnW0WZUxf3z/fV5YICMCJalEkHKUrrru5V539LCV11zn+F//I/asZvd3/M21v2yg+Vg9jbrn++D/+LCfe9XVxl5ztOqBXeJoskYmBGUhyiCCMCEiKR2WyBxWIgptLbnh4THNnc0CSelZZ19xEYP7NHr2qXQ5LMiSbx2oOqalyZ27N5sQYUIkEgsnT7f06GnceL1sBlEZZVJYfWDEWDnbaFE37rLLr2VGm8beVSqTUGswOVnTnxhpN9pSWD884ohk3OWXv5gDtzDWy7RcqiTjwmGzKyZERcqSqIySlUQpBdHIVI4trNr0HR/926mWzDrO1K07HGyM6cK/v/NtDj72kI++8y9kh5KXXvlav/3+v+DJi8lRS2QlkYggJbK6jbtaDNda7e/ZZkIEWaIMJHc+/qjGE1eonLqSlusZqxAZURKOiJKUSIik0RIq20rtR9HyDw0//95Njr7hGK9bm9kxtl8SnhXGxTWJa0i34F9wB7r9P2MS5mIm2jEZC7EA83EU5kdoqY/W1Uf9mPi7Sr1e99NEhIgQEcqy1NbWpqury4EDB6SUtLa22rp163u6u7t/1bMiSA5LXnTScu/7yPssOe8S7JCsErqE49Gpbrc77vyO275yo1U33Srt3u+4WotXLjjGuma+tGmzdQ885AUlkh9ImVTSVxQmReafPvlZr3/ja/m7l3P91zkWzSHtS7aO1EyePsmkei8F4bDkh5LDUhiXBUVkQiGUUgqKRAXtOXJS1YHhwsPbRuzuTtbvH/Zgbb4/+ZWrnLD9y/SPyvJEChNSokyUze7ta5jfWvONLbtMyJCCFI5ISChJjgikhIZOrDjjfAbucfxxVeVvnCZ7/ElmcuAQJ86b5tEt6zzrV177Jr/1J7+m8VtnqOzYKo4OqUiKLBOJPCNSIgvyQKKSZDVUg1pGjjzz999ruHrubNvHxiTPqeHyK17MY9+U5aQWoiWzZ6TUW0xRtjTZeGC/CSlMSMm4K664yuQZDbbfQidqwbzcgw80nNiYatfIIeNecu0r2XOrbHgfM1E0mJu54aHCwMhUrbUhE3IUTMLyExez4zOySZTtOWUmsjpZLiIRiSiFEHmNLBFBQldDmfi7d3Ns0xJf3rbZwcaYcXMmd/nKJ79kx84duqfOdF//HueceDoeVfbdITqIQJYjCLSM6e4ujOxu19zKrt1DyEQqKUgyJI/07/XoI9ucdcZSqtfTaCCIIBIS4bBAlTzJJdHSzI6qfFbJ2zj/uAMevuEov3hnixsPbjMhkBwWjkiX43KM4Hu4DRuxD7tRR4FABVU0oxOdaEITmtGFaZiNmZiGGZLZaPe/54OkmypZlvlfERHq9brR0VGNRsOUKVNs2rTpbVu2bPljz5eScdedfbav33YjbU24D0cLKzHggafu8Z1v3mb1d29Uf2qjjtTk7AVzVZbMcNfevf75iSeMlcmzApkjEkrPSgRSMu63XvkqH/zyZxjawBvm2rJxt1WT2XAfB/clnRed58RLVjpj27fZu58URHi+SEgZkSjIqw2aEtVcngejbOrn/jUNew4x0MOOrMPuymzt2qV9W/zG377FFSsmK976EfmUjKJK1ImEoCmzbt+YVaOdls0Nn9uww4SE5LCEEI5Ikh9KZCix6MxzLFg0i3d9hrXbRRuO4+7ecLA6xWltNR/q7THuuLkL/P0nPsq//oHsgUfE8RQpycOElCGClkRboiVDTj1sHSg8vL3hwKFktC9s78t0xTQXHDXFOx/ZZFymotRw3pKTLJ/Xxbe+KJuECqaGex8qzGpMsm2024BnlZ7vujf/Nrs3KQ8RCxCJPNywt+qElhb3b9lo3DnLjmXje0UXRXsmylJWqVq/PpndMskDezeaEDkKZyxe7qhF03nocdGF5pJAZITDggxZQiLLiCCQErPDbR9vtSLOtsaQ723fSRAp80xvv2d6njShx4RjTlxMcS+tqASZwwIZWcmszPrbaNraabS17lkhMy6EMhKJ76xa66zu88m6aO5V1pskVVmWRIQUVRE1UlXKakRNZM3UqvQkxeSa7BeZeWabG+46zgc+N9df3v+QvtSQhCNKz9McXIWrHJZMKDGGOjJUUUX4vyI8J0OJ5Hm68dcOq/hPyrJMW1ubhx9++A83bNjwjpSSH/ei00/19Vu+TVsLMpxu3eZ7fPebH/HIt27V/9gTWhqFY2fMMv3E5Z7oOeT9WzY7ODTohwIpd0SplCSEH5NYMmeet//pnzrp8kt96K//u+3v/gA526u5Td2FoeNOdt373uGaY9qdcPe72fYMVeS5I0rKRAqaEq0FZYVqYjSs68nce6C0ZSAZ6KkaLjvtrHWo1drM6aiY1hQ6K2HdgT7rxg75jfnT2Xi3vIGsidQgJRNSojM8vakwrzJNGHWoLAhyIaEUKCU/anq14mWvf42FldJtH/u8s04/l4HdbNjONIfltHHvhsJAbapdI4ckR/zzZ76iY+fdik+8T34sIhdlorVU6QwqGKvo7w+P7hqzrrdh36Ew2tNqMNptzTtEo2ZuNklze2ZqU93HV233xIH9xpVZouTsCy+iVii6t8m7kGNK5t+3UT1wyN7929WysOLUs5y65DRLFp9qybJjLTnjVFOmNCk/9WYxC81BE/uG6g4OTHEo2DEyaOXJZ5g+fxbr1jGVorWiVhnTM1pR9rXL1T1y8KAJjQyFq69+BR3bpMFb6CJSJtXGpMgQJkQSWSICJVkiy0zoK1z+3+ZwyWLXf/opt2zp8NShQ5IkghQoTejC0hMWcOgR0UxUEKUjCsqCrhZPbK0bGSzsjWHjQhJCIcmUQinhaw/f6U8eOFHbpZcy/Tb6Z4q8QpaIqkjtRJWoybIaUUMNOdUmZb1JOUzl5Io4tsXvnnOC676+wN988X6f3LRFQ/LjMs8pTMjQjGb/j0gIZKQMpR/zN9jnsIr/pLa2Nnv37n3zunXr3uuwLDJlKj3rdZdf5HM3327c3j33ufmmh9z03Vvtv/37unr7zJ81z+nHL7VjqN/Xtuy0fuNmP5QFKUQqSaQoRDIhOSJ5TuBlpxzj937l19T7+rz7whUO9PbqOupY/du3OWP6fP/wL+8z61XX8sjX+Otr6B1iNlJQNqhktGTUgkQx2PDYTlb3FVYfKvX2tlBMtr/STLVm/tR2s/PQnMZs7e5xx8Feq/oPaaRk3OyWJsvmTeObT9JMEXVZVogyI0qKjLLqkYOFeS3NnukbNCFRSI5Iqji6tdXiCy52yvKTXbHyXCsvPce999/vmU98zEmdTS467yw2PirV0ZSLekmlxY7dY45vbfXkrj3G/crLX+2yC5dLv3Kccj6ayRuF7KjcoZGqW1bVPXmI/t6KfLDTYNZmXzTprHWa1lpTy0fNyet29fd6oLfPqv5DBkaHTAgEysK4F139cnbdTxXt6MhsXjtm8+6F3vGev3H88QtNXTjTpLmTsY/GbvY/zNovKNc9KIafFNMzlMypePjW5Ni+GYamDxn3qqteR/M6+u6ng2qUzK648+5hA4fm6+ysG06lIwrjzll5HgNPUENrlTKROyyInLwhRZByFOSliEQl0Y6FVY9/Z53r/2qzVy2/1EsXL/XUQ/cjSaUfcfbxy81bNIOex0QTIlEmBBGkKllm9baKvkaL3Yf2GJdJkuRHRHi6d9D3HtrimguOkSr9oi0XZSuCaJayVhFVVIkmshoRRE1KbSpZThbSUIuivaJyRrLg2IU+evmpfucrd3rfrY/5+trdejyn8AOBFEiEI5L/qwJTm5oN1scMK6QUJM/3GP7BD1SKsvTjUkoCWZYZF5EZN2fOHA8++ODLrr/++n9xWERISs/63Z97vfd/7iNuv/0zvvCv/2bnXU/r2r9bV0eLpQtPtLted/vO7R5/4AGl54RMRKbUIBECSSRKPxBIfsRRk7tcc/wit336Y55ev0s2babtPX12rt/o6le/0X/7wHvMqh5S/OFKbr9HPhdHoTmnqcIY/f2jVm0pbRzgocFc70C75vokA7UWWbVm3pRmWbWiqA/a093tprVbrRsc1vDCVl75EpM7Bnjq+7QQRQMVE7JErWQs3NHXZGFrw/e37DSuiuO6pjjp4hdZetoZrjz7ZKeeuEi1tZme7Yw95nvvfLO3v+d65y2c5fbJ8/zh6Yv4wofEZFQL2sKG/mTzUJsLZtR8YvUe4/7ob97DjX+n3L1NfhwxgqMq7t1S+ODNVe3NCwxVW3Q1t5o8lUHDmkdHbD+41y3dvXbUB/xUiUpkGkqnzJzj7KWzuPcvZdMoO0NWKfWUnf7p797pzJctYccNbH1Eef9aqW+dfHhMGaQaeQumBSkQdOVu3lA3pdLirj27jbvgonM4eJ/USrRmNBpMbfbwU6W2bLL1h/aaEEilee2TLVqyiJ6viQ7UKmR1kYhUEhWqpWir0F6hraQjI1XorevvKTxyQ8Uv/Ubh9V2n+Yf7tvvUxjUmBJIfseKcFzHjAGtvpslhHaQqkSHR3EGqsK/bpDzZ3tODkCSB4JFSOhpT/cC/PfGoa9YeJeYuV84oRF8LUSOriaxCVIkaWQtRIytRI3WJCPIgNctHK1SDya1cNOqkpYt9/E17/cWDm3z1xnvdcf/T7tjb7ZAfSA5LJiT/aV2YHrnOri7tne1mTp1m2sw5mjo6tXe2mDm902lnnaJ4/CHv+vBn3bCvFwXChEDyl56nkmeZ/5mUSh0dHb7zne9csmrVqq85LCKMS8mE33zdq/zC61/jl698kW2332NeZ6tL5y90YNY0d+/e6ZMPPWpY8kKSUkqlPIvRyZNb1vT1jyxpFKkWfrrAnv4Bv//lWzVSacBhPQMWHLfEP33kE66+6Aw+9yd88n3yDqzIGava2zNm9cbCjqHC/YOZHY0ppqQuUVJv7TBjcptabcTA4IgdPd3u23zAlnpd4fkyBEoimZACySUrV7Jvq3QwiQWBUErywhHTku9vbthxoObl504Xx5/ohAsvcMG5Zzh3yULVrEFjkHXf41N/p1zzuGx0r539/NXNvGbl+f7xrrsc99LXmdcyyNp7pGmkCNmUzP2rhx2oztaT6sb90mt/yfHzWqX3vkt+NAILqh7YWvGWL1S87OyVDpSDHti2x8O7dtg+1GtY8h8JLGrqcvElKy255BSNNZvsvOUeTUtP0tpWKA+uElMpmzLZaOGUM9pklXdKH1hLEM1kzWjHZKIaUmRSKoWMLMiqlMmafS1OrLZ5ctseM6fNsHDxdPY/ICZTNmUyJXnYvb1mUio9dGC/57tq5VWmHxU8/Q2pgxgraC2ZX6M5UQnKduX+EWs3D9u5MfTtTbZsL23ZUDNycKqxvW1ePaVVah/2yQdXKRyWO6JEclggWXbSEmKjsmlIVJaK1EReJSpEYnKzbVsyaSPtkzK7DzTIMqlMwoR34OV4oxRIrl+9ySMPbHP68tOYfZTURkQTKScCNTQpo6qMijzLRFYRqYKQIkgVKc+kVCpTQxZdsunzmN5nwWln+oPXv8QfrN5q3R2PueuxVdbs3Gf1vl67duyzb/CQYTTLTW9u1t7RoamjXXNrs/aWZpO62nV1dmhra9E5dYopM2aYPWWa+TOnmzZ9urbpU7V2dTCpg1qTI3K023LzZ62692F9jWZHhB9KvotveZ7K6Scv9HyNxphZM+fr6R+1actGRaO0c9cO+/aNnLljx86bR0ZGjEspedbvXnSuV5+3zL/96e+YN5BZcM4Kd+3c6mvPrNJXeE6GlJEChXGVLFSq+c6u9uo3zzpp6j9v2DX4pgM9QyeHnyaMC8lY0TDqiPmdU3zonz7g2je8jrVf51evZFufje081ce+TYXHBtiWppgak7Q0Klo7qxZ3TJHldRuG91jXvcvOdQMOFMN+VBDJhBQCISFJiWRcUsF5S45n4/VSKyJkJY1IUkoiYYib9jT55b/5H/7wd17PoQOM9LLxIf71rdKq+xX9ddEgR9aBRVW//bW6o5eebvvwqLV420UrOLCBAq0hGhkdFet3FBZWOz2656Bxv/1rv8ijH1EODckXooJqxTu+2/CiM1d6onu7z6xe66fJcVxrl5PPXOmoRcdasuwES5cvc+aJx2lUGr7wiY9Iew94YudOV/7en1GskVK3rJ2KUDY1kfYyslssQE6KqjJCljKRlVTqIpIUuYgglcwsPbMuM2vvNKNtdUP45YuuMWlugw3fpo2UB9Mzj20fdmDfXFPbxuzcMmhCMuHyK6+gZZOUdtNco61UaPK9m0t79tb17ygc2FE6uL3VwN52aaRVeaihtdahqbnFtJbS6BT2Ng655ZmNCoEQZSkFkRCklIw76rjpNA7SfgKxhCIjqkQzmmib6pn1WzS61+uujDgijEsIrk/U8EYTwojkk/c+6vSzJslmnaycvohyGJkUpZCjIiKTKZEkRJSSpJSIEqUUZMjKOmlQymtKFVlHuzhruuPPWu74QwcZyRgKjS0H7D7Yb6xjkuaOSbqamrS2tIjJnbRltNTIW5AjkCNDHWMYwQga6JaMKQ3KnWD3jid96y1vtfNQq3u79yCEkCSHNfAHfkylva3J89XrSdekdvWyIsszzbUmh524YcPGW5D7MbOaauZnuS9/4COeGh3z6L5S96aNjsiQoUCidFiprVoVlWx1e0fle/MmT/pKoyzuWHnKdMOjfvf6O3f8gcNCIByRkAgiBZLSETObW/zTn77FK/7ij+nb6KlfWOapm56xv5mdlap1MU29rJmTWnR2tDm5LdQbYzYcGrZ+3z6bDqw1nOqeEwgESkckEgKRJEnKkJCQTDhu2alOPLqTr3xD1k5KgSQXVBDJaDf/7SUvdvT5nbz/JdIT9xjtTvJEtY3ooDID1aARTAu37Qy79k9zzXG5P3/oQePOPn8pqz4sdRC1Gq2jBsZq7ttXs2JGi3c8ts2Zp5/k1OVz+cePy+egVmEe77tpWDUtNpKN+czqtZ5Vw9FTZjrj1HOdsHCJxUuOt+Sskyyc36V9RkbWw2gPe5+k9x+98/eud/+NFQuOm+XLRcPfnn86O/5G3kVqDoHIC2WelFlFRC5FQxZkUZIVRIg8JxyWERlFYn7ma18a0zzUbk9Tv3FXX34NY6ulbIhWslQyr+r7/z6qs3+Kgx1DxmUo0YlTz1xO73dEGykbY0mLL76PP/+DmhWzFymGGzpbQntbp+m1iqFan/1NdY8PHLRzb4/e0WGF58uJkFJJIjksBZLTpsyy9MQ5jG2j5XJl2SlPiayJaJFSm7DIw0+sc7Bv1KFORyQSEk+ECd+Q7KKcE0j47CNb/e6NTzpu/vHiwpUiDpLqIkqUUipJpZA8K0nGZcKPyqRIwhhlIkopcklVpomOmXQklCoLZpivFU0oMYYGGqhjBH0oJcm4MC4hHFGgjkKYJrcUme//w6+pDba6+dCQcRlKCQnxIdJaP6ZSrxeer14vjY7VjY6Oam9rd/DAwaOfeWbdrZgUSH5Uz1jhz26/11gqHRHIkJChRJJXNVqa80emNLfdetK8zn/fOzL6VM9YYe6MqgXTKm6+Z8vb1+wa+gsCIUky45LnS0rjOqs1v/8Lv+C6N7zWcEfNe97wMj2fu9nWjpqBmUebk3dqr2ZOaqroaQzbMjDi9l1bbek9oCi8gMwRCQnJjwqSw5IJhR/Rjj/63beoHNrL+r3SUUilJAmHZRmRaWrNHbPreo13f1lUiVaaj0aOyFEiI4LWgkruz68fc9LCY9SOnsFDXHv2RRZNy1n1TTEdUTA9c/e2YfuL2RrZqBKvuvq1DK9THtosm4qmktHcrY/mFk/tsm7vHldf+hIrl55p8ZLjLF+23OwFs7RM7qdykMGDHLiHTXdx9x30H5TqRGAhzQWnLFrm+m2rnLB4mblHzeCRNXQSeU4QWZJlucgyohQRBBEIZInIRJaIOlkiMlLNA08li9rbrd78iFxu6enL6f9X0Ym8ggZ5m02PlqZWmtzWt9e4UEHDiuNOd+xxHQx8XdmGRrNI7b77yKBXz1miZU64edcWe8bqtm3epFHUkfzHCpIJlcjNm9xucHjE/uFRZ51xnqYF02kUsuqpyrIiyYUmoipVMmGJ/l25GBqwr6ybEAXJuEeTCQ18FH/lB/oVPvL4bu+95yvimLOYfzKxBc1ISP6zUiTjchkpSUYlQWTGJSEUOCTpE0rhWQmBhECSJOMSspSRHBEl0YVFGuUBj934CY9/7NMm7djnmbYOj61fS5BSckTaQ/Z2wo+reAEpJW1tbQYGDs168slVd46O1mcHkp80mgpHBBKScZmkVmkcmtrVfE/nlLZbKi2NL0dhe63oVGmq6VTo3rff7qLfU+vKT27aW/5iFmSSshIjtVo2PDaYJpuQTEgmXLPiLC976RVOmn20uz/0QbfecoPJzZMsWH6KJc0ttg+N2nKox1O79tl1aNBPyJEq8rJAUgSSHwgkPyl5vpktrU694AqXnn6OSy440/GnLdXeVpPe+3ppEmpkkRBSSiJLZBlKKRryuUQWZDlREA4rpTxRSSKhLfn62txlv/ZOf/VHr/Odz37Ub995l2PPOJ3RvdLwCNNC1DGrYs2dY47RZXV3t3GvuuJFrPuYaEEzZibfWd/QPzJL7/AOx156rnd/5kvU76d3LXu/yTOr2XMLo3uVBYKsiiqmEJWMFvYNJ99a2+7FM5pt2jDs3Ve/nrYtDK+m3RFZRpZElsgyUiIKsjAhECVZgwwRpArT6vbvSirru1Tbxqwea7h6+cXmHovur9KG1KCV/j11m7ZPckxr3dodB1BRCOMuvOIKpody81NSyzx5Zap6b0Vs26kvhvzjw08b9nyBQPLjAlOxcNFCJx6z1BUXX2hmV2h56nHv+Op33TQ86pTlx9HUrMznyrIpsrJCZKQmIpflgVBu2mvq1HY37dhnXCSSCZs952P4wxQ6JBM+/MxBv3hnv5MWflZ67VloExpI/k8kzwoTUmlCUCISKUjGlQjjQjIuQxJKzwmHZYlUiJhtdHjUPV/+H1Z99WtGHl+tvXWeO5s6fGLVU8ZliUApSbyNspfw4yoR4VkRSElnR4d8NDqu/9aNdxSN8qgMpeeEDBkKSaBEkmV01rLtba1Nd8+Y2n5DxMjXOzpaBlq6Jtt1YK+RkYY8K/UPDtuxr9fBXvb2NJbMmNPRNG9O+tMD+we3zZ87Zed5p09Z89RT+77w6Lq+ix2WoUxhVjXzN9dd4oxTTnbD7Xf56IP/pLljiqnzjrW5r9c31zyjZ2zMTwjCYSkkiQJRKCQCgZRMCERQJs/KcWwlc8r5FzrpjBVWnHm2c888WUtnRv8Wdj7AZ/9R/am7ZEPd8rkZZUIiSyILIhGJDBlSEEFekiESgUBWSohhLj51qpe9uslv/OabNR5Yq3ewdOX5Z3DwcamNrCVoDbKK72xqOK2rycfWrLZ0+ZmOXtTGN28UsxGYUXHr1+s66tMc1KOxbYdb/uxKC9tvsmguaYhoRSupg8gyEZlxKfv/tQcfAH7W9eHH35/v8/z2uH25Sy57DzIhQJBAwpLhoHXUauuoe9WFtc66rVrFwb8urKIyHUVZYSYhCUnI3vtyl9t7/O43n+f7+d/vLgHCEhVbqbxeFhyL5C2MdzjUbMlnoxzu6aEAvPLyi6D3Rrw4mKjBqAOOD8IwQZ08agRjLRgLyQCUWUCgAyi4qOMjvkBNkDvX5kkMxEgFlaLLrlgBpZ3QfAgNhxB1YUIJD96cIdJSiilRClgwgLUIsHzl+aA7MeFFKFVQWcW6+1qI1fcgpS6ZZp5EKaoCxiUSjD9jLrVTprNkbB1nzp/JhNmTqJw9ByJV7H/kbo5f/2M2b2vk/vYeiqbOGwdYcCdjVTCOAwKKg+ADFdS3N5M9cYJ8KEwPliKj4DNiPY9rBv4D+DcMYCGtGb56MMkNd92EzFwJi18P7EFxAMsoRZQRKvxJRMEoI5QiQTE8mSIUGZ5AGGYRqWPr+ge44R/fy7hMjmyyguNlk1l16AQtmV5OUQSDMmwb8CNGKE/mIoYiI4IIVFdXs3ffXm689Z67fM/OFASlSBkhoCioAkpRPBroKU+E74tG5CdVyeAqdYLqOi59/VmGMh4SLuBbRUQwRvA9j8auDHmfov1zplX8/YGGQSoSOd5+9VQaWwbfue1Q/wqKREAVUKpKkhxubOcnD3yfrix0e4aO7qM8mVAkKMoIBUUAJRRwc6FQ4HA8rFsqEpFNx1sHPziY9WaAMkIBhUllZZw9ZzrTZ07lnGVnMm3OHOomziMWSMHOn8Fv/gPdvxPb3YvkQSIQKAGqAQGMgALGgAFEwRgQELVgBFAwgGPAKBhBBBBAAEcorWjhQ6/7IJu3jGHlpDIeTlZz/pI6WPdRTBUQFCizbG3K0tVTSWR8lB7gHedfDu4RNHMcqQACkPfDNB4MsqS6nJuaWsiseYTGrZN43QcuZ9rktcjAEARcsAxTEAWjjHANqi5S6kNdmFuuSXNFbCyPdB9j7LjJTJ47FlofxSkFz4CqxXE9SDiQCCBBi8QVNAKdPj19ll1rC3QeruTKi6NEKxvxvQBu3oFojDUPd5FwqjjS2UTRsguWgfcolJQiTANlWCnrHzlIjQ1xKDPAKEvRorIaFs2thfwdED0TKSSByfzu3pvoa2rhxEAPRQviJUyqG0/NpLHUTp3EwplzWDRvHuOmjsepqwQTBQzQB2SBKn59/WdY/77PUTtlIV8+ehQfmBhwWTB7MpBFCIP4gAEEVR/UR0wZj2y8h1RvH04wwSmWEb3AXk53Lco7UGo56WcNQ/x9eYCX3vYV9IyLIFBGgS4QcNXBKM8rFU4jCM9EEB6jygjxqBo3hvqcz4y66Vx/4CiHBo/zZAp4CKCf4Fm4XfVbCYQMLT0e6YzFoOw/3HZHd0/3SximKKdRhimu46crq+Nry6L8POTGbouEAvmCl6Xgg+/5WBdUeVq5nEUtj8nm8py/sJKXX7CE363a/4qf3H3iPykSwFGsBSzs7upld1cvTyGA8hgFRBRHIBxyOiKxyH7HZvZUl8Uf8pzIhnAk3BryMjgCL5kTX7fzyODGlgE/JiKoKmHgHUtmsfKcc2jMDdG4+yDr12xhzX3309zWxRtedSEfHLOfCtuLUytY18W6BYyAiICAigACRhABa0CMIGJABERAFFAwoI4gImAUjAERcBVUmWB9fnL1dN582zoWXv53JKI+2n8CKWHUuAB71uWo85M05XopuvqCs6FnI1ICBKMwxmf1viGa22pYND3P0b5upibKuOvgYSL+rfhb7saJAQ4jRAREQQARRAUJ+DDG5V/ekaZ//QxmL63ggfrt/MvL3oWpaoTj65AguL4g5RYqo3SdyHDgSIZ0u0NXvaW+LUd7Q4R0s8uBw3le/Z6PEZ28FbKNQA3EDHZwDPldIcYlHR481Mr0ikksnlUL2V9iY8swfgUYhsU4uK+eyZE8W9pbeaKXXLiM8IwqNB3CD87CLakil3HZ9nAHr3v7W5l1znwqxo1lxtTJBMfWQiTJqCyQAvJAO5AHFCgAS7j71ut48IOfY/GiZXxm934Gs4MUnbNoAVWzZ4M/AI6DVcVgKRJAxABhGg80kOtJkUk4nKKM2A60c7p+4CvAt3hMlo+1Tefs1Xso+9lX4C3XYuhEcDCqgPCXQUBdlBYmTLqQd//Xj/j2y1/LrLIaDg328zgBhFF6M3APz8LNDfZjfRgc8MjlDQ3N3be0tKeuFASlSDkl5OLHYrGNtWWxW/Je6oaaiVX9rs3R3pZFEKy1uAFhhHAaI+Bb6Mv4TKoIMKYiRHtvnroxUS4/dxwzJibYd6hj2m9Wt97ACAfwQQF1AAMUeFoKYiDkBqwRDpSWhw8EQt6jyYB5yLiRbZF4opDu6yYecUl5LrlcAYOld9CneoLuqRljLmkZ8Neq4iJQMHDt+m388KEtJE2BMdE4bn+KlXPmc+U9m5gxtJnkr98KYcAVEMU4gAgYAQERUBQMYAQQMICxIBaMAIIaBQcERY2DiAHHgDhgfYjl+cC74/zqZ8eYHQrxshXLwDuChkGigLUQdfjtQaiOR1jbcIgxY6ew6Ow6OHwvlACSgXEhNtxqKfGT7O9opuj/3XgXkdpdsOr1mErAOiACAhgLYsAI5DwYH4QpIZru9ylZl+C8c6bwjw+soejqKy4E7140AmLCSIVPjxfm/X9nyRxKELElOF4IGYSo66BxF9PRwjtf8Y+84etvhK4HUWcejqmF2jhrN/sMdTTRFxvEA664cBkyKYb2FNDwPHwbxYnXsmtbMzQVcKJROjI5QMAqRRdfegWIA6G5qCSAchoObeZjH3o3L33Nu4EUkANSKN1AJ0IBbB4EkACKwSeIUMDhLNasuZNfvPP9XDr3LL60/wBNg72csnDxDEiUYf0MgiIKCI8ThuXJNbYTi4TZ0d/Hk2zn6X0beBOwiBEeO1uP8LXkeD5x63fQ+RcQP/MV+LoL1AXhL4gDBIDNvPSSv6H+kx/lwPe/z4KqCnZ2dvMkaeBjIDwb17gOgYChtjrGmkdOfK+lM/UahilKkRsSKqKhnbEAv6qokP9yA2VNoWCMxtYUQ+k8YfFBAOEZiQiZnE/Bh8UzElx+/jgc15LLWWJRl7KSCLu2H5N//68Dtw36JBHBqKIqqK+AD/g8kXEgFgv22qzsKok5+0pL/Q3hSHRtd69trBmbRE2OXP8QKKTTBfKepeBZfGsRMaRSHlPGJzlraTXzC/aRJQvSK35xx8H701kNWd/QnskDCj7Qn2Lp2Fo+tmEtsZ474EdvgAgQcUB8DBYcAyJgAFGKRAQcBVGMCAhgANcHx6FIjA+uAd9FjA8RhYSBiELIgbooP7olx78/0Ms/LzqHc86dBa2fRMoAx4ES5XhzloZjJcwrK+Hw8RzvufwVuGXNaGYTknDAdVHrsntTkHOqyvl/hw5z3swzuHRsNzz6zxAFiQAJoFyh24M+AyEDWoDqAHuPB/n5ZzL4+w2XT45TmhzEVZ+qsvHMXzoJ+r4DpQb8cTCxlJ9f18yWexyuWTCXnakm+sI+XeE0LYNZDrZ0kylYLjxrPrAZVYO4l6BigTpWP7gKcobOSJqiiy+7AOhDQosxbjm+4wBTWP/wVmp787SVJxghCgpTg0HOWTQL8BB3CgEMqM+0eUuZPr8U2AfkAIciBQQBBJUwqCCiCOCiQC1Ht93BTa9+NRdMnsd/HGvkYG8PAiijJs1aAhhwFBQMgnKKAjGUXtLHduMFHQ50ZHiSvTyza4D7KTKALfDthhQLg3HO+toHCP50McFwKZhulBhgGWX53yOAAIJVixFYPLEUSbps8hwep4Ay7FqQBn4PN+AaIpEgq7c1faOls/8dnFSVCJ2IR9zfxMv4YUkkumdwMIMYS67goVoAVUT4vYwIqYzPUM7nledM5LJzJ9IzmEWtEAk7WIX0UI77Hun82aDPQiQE6mHxAaHIBQwQiTj18XjgoOO6j4QChYfHjC15tPm4lwq7UFbiM5RTrEI6U8AEfHyriChGhCfKF8B1hLoxFjcAIjB3cnRddUn4+PFseqZBKFIEiwLKWz7/DWKRLdgvvIEDOJRWVTI23AEKCogRMIIaRohRMAIiYBTwQQARMA4EHYgXIGEgGICggQJkOpUjzT5t3R6HmiDb6/LQBjivooKKWTOprQ3Bge1IEvAEal127fCZPFRBpmKIoisvPBuyxyAIhMNQY1h/MENDcznzJvh0qc+5uRQtN95M1Vu6CZwF9EbobRMe+XWGGWU1TFsMFHogAFRW8OHXDaGbZrFyZozfZlL09vczQI5/WrycyMQUdLUi4YtAXKCGvff38vLxMX7avY+Hm5p4sqTrcMGKeUAvkjgL8tWIGwHG07T2F0yLhri5/gRVOLzkrJlAHiKLEQyuMcAU7lt3jBoRDnR0UGQULHDWWYuomjsRtB/EAauAYowB6QE8UAcVhgmiQpFykiiqliIRRpjBFr75oSu4b/MAu7btosgAPlAFnDltEpDD4IK1jBBllAKlbN+/h+6ObsLROGgnT7KXZ/YA8H3gHY6CFYehbC/f6p3Mv24/TtfH3sxZ1z4IYkAHAMP/LgUcwAVSGJnDiaM72fXd79BBJZta9/Ik9cBnQfl9XMdR9uzr+vHh+r43l4ZMT0kyckdlVfDHdaWlawazSutgO9mcTz6vBILKcyUIqtCf9hlbYnj5kglMr06yd38Xvq8UBQIBYlGX6+/b94l1e3tfDw5oHseBSMCkjJED8UR0f3ncXeNl/bUhJ3t44qQqGtpyeN4QhYLFt0qu4JMvKKoOqCLCUwigCtmcEg5aSpMum/Z1cs/GFtyAQT39u4Z2nQkOPj6CAAIoZ4+rZW5pB29b+E46Wx0u++CneN2ELdB/BzgMc1AR1Ag4IMaAAUTBGPB8SCpUGXAMOA5kle4mw8ET0Nbvc+RIju6OIIXmBF46SKoQwitESQQTnF9jePTQTlqrq3DLUkABYkDBg4oQd2z3sAWXR5pPEA6Xcu7506HtZxAHnDTUBNj2U6U8nWDT8YNUl5TzlZ/fSH9phHvv2UjnD/voOu7Ssm6QUMUVfPGGy6Dsm9A/HmojbNjrkm1q5e/Pr+FTWx6hIzPEKS+/4hxwByBYBXYmlAZpbnPYtSfHBRVRNu1uAQyIIgpKkXLV4rMZN7MS/E784DKMuEioioauNKnGfsaYIM35PH+7dBGlMyYAg1gTwJADEnT09pCp7yIcNRw51kmRZdRVV74c4iVg24AwYAAFtYwQhyK1SpGIQdUCFhEBBFVllKAcZ/IFb+fmfd3c/eCXuXTabO49sp9T5k6fwrSFM8H2ghGeSoAw+3buYailj2A0ypPUA4/y7K4RuFhVpioO4LOhqZ7bZk7nil89RKHuIyz7yNcROYCqDwiPU0D4nyOAB2YAoRaIseffP4YZcrihtZOn8Ukgz3PgbtnV+a+H6vsumDKh/A01JXIjOOqGDQXfks56qGWU8AexVlExzBwf48LFY3HVoz/tYS2ICEWRoMv2nZ3vWLez9wvBsNMeDbA1Go7trK4Irqkqiz5yqL5jYEJdOZ6XY8DLkysomaxP3vNRa1FlhAjPSBgmkM5aXOOxaGYJlSVKU2sPnQNxFs+rpCIZZPXW5pcq3RiEIkVRhCLXFPjVuz5GeMr5fO53tzM/+zNYeweEAccgYlFjUBcQRcSgCCIKWoAySPshtqzO09hbYF+TT1d3GO0oR/qFHEEKfpxx0QBuOEA+Jvj+AIPpAQ4MdvHDbb0UrMdHVy6F3A0QBQ2BJCHfA9t2hlleW87vDhzk6sveQOmUHth7J5JwwFEwSVZvHGQyPhVTJvGRd7yd/Q/dye3f+ncMNRjvDOKhEOXpdj7yk48yZul+tNVFIvMgPI4H719PMh3g0c4TdGSGOKU2nGDRillAG0QvwRbCGHcSa9euJtSXJRX0yPsWDIgFxQEsRa+48jKI1aL0IJRCwAMmsGHdf1PoStFTMYaiK666EqKloEMgyqixPLLhZqpbm8hWVDJIkQEspcB55y4BUmACqAXE8jhhhCiCYZQiOEAQVHmMsSgehjHsXPUD1l93HdMnT2FDWwdFvgiocsbSeTCuAvU7UQxGeJw6IHlAaT3QQEgtx9IpnmQroDy7QeC9it4NeU654dAJaubM4fiX/4N8ZYIL3/QZRPai5EFdQAABlCdS4TGiPO9E0kAJUMNDH38d/sZt3Feo5GjPccAAlpM2INzIc+R2D+TvqiiTrybjru95PnnPI+I6aEBB+KMVrFKZDBPyhti09QDZgiKcLuiKHGnIRMaWB66aOLHkzva2PkpKE4SDCmIoeJDJFkAtvm/5QxmBXMGSy+UZX1vC5NogNdUB1CqKEA4J2XQOP5iJ5bKplQwzgMVFUcBStP5EF29926d40w8+B4e/Cfd/CKqBpAPBINqbBfUR1yAIiAIKouBYmBTlve8vsHVNCSsnVtJbcEiG4gRKgqSqMgylM/Sle9nZ1cexVIasWp7svGkLWLpoIvSsgxLAD8HYAA9tFKo6SqmY5FIALj/3TIj0YONgQmOhMsreemX//jyLJ5STqCxh1/U/Yevu/cRqptCTh/ZsN1taW5gyfhpfn5uEoV40dj4iY4CxHFnzEHPCEdZ0dTDCGLCW5QsWUTNzIth2CM7FBF1gDusfuJ4zDJzIDDHKoGJBfYqSgQDLLl8O5BGqEHwwASDAo/f8llILm9taKLpo2XnAEIhgcIAQEOHBex4ikvM50ptmlAEsC+fPYtKCiUAKJYA1FkEZJShFOcDDSAgQFFAcEDAYBAchBDiAAOPZt7Od0uZO4oumcWTHThBAFBTOXrAEiKCORSkSRgggBcAAlkzTQfyMzxEvx5Ns41kYY7DWonAP8Angi5yiWb5X38w7J83kprf+G5YkK9/0QWAvSAo0BhoG8YACIBQppxOeTx4wBpjE2i+9le7b7+dOxnDLwX0UGSyWx3yYP4AbdNlZyELBUwJGEeF5ISK4Bhqa+7CAiPBUqslkybUZB/KepeBDNu/jOmCtRSgS/lAC+L4yOFSgojzOzOoIU8bGEQMDqQLBgMGIEAkZjp7oNeu2DH0z7XnjQfBRFAMUAGVO+Vh+cfOtLLzkPNj7Kqj/FZwXQPscDh7PsvdghqXTpjB+cidSGAQCIAICGIUy2N2grNsZ4APLzmJdbwN7ujro6aynvT6Hx7MQQAALZ1+wEmr6oK8DjYchWwdVPmu2deEMOuxoP4YAF69cAJm7MSWLgDJI1HLg0FGqsv0MGJ/P3vEQcVzSKPn+gzzRinOWEpgUhXQE454H0SgHGlIc3d3DpOoaNu86wgirFF18/mKIloBOAspAhIzNsvfRQ5xXmuDW462MUMsIA1h4xaKzqZs/F2gFHFQtIjGy9HBi32EmJmJsO3accyZPZuLciUAvIIACAaCVpj1HmVqS5FBzK6OUotdcfiWU1YB/DHUiKD5gUQRBAAeHOBACXCCE4IIYIAq4QD8+XbS2tNDS3Is1B8kMNjN+2kQ2tbYzQg2oJQksmTIOKCAYQDmdRUjQnTtBS2MT8dIwrY09PEkDz0JEEBFUlWFfAhYBrwIHwTCQ7ufGNpc3zp7K19/8IRoGU7z5fZ8CWlFpBYRRAiggGOXPQABFJADUsenaT9P9099yX6SWn+zcxymWx1wPbER5zlyGKX8OilUIhxwwLk/HCKiC5ymo8nzJFnxCYZhUE2fejArCQUhn8/gWVJVQMEAs4tJ6tP9NnV3Zb2UKXpIRglKUJwR897Of5K2f/jywnqPXxzh0NE1nn6HlqENbKsiWLQUWXPEPvPIfpkLbpyDMMAsiYAxYH8YGuPuODFU6ibZcOzftP8go4RQBVAQEUAXlcZYRL1t0JgTWQDyBmNlQqkAp6+5bz6KqGL9q3MvyBcupW1AC+UYILcVqCMMksqkB+gb20xDvxwP68DgljGHRhMnMHlvJNa+/Gsig0elIIQaMZ9vWB7HpLB2JDFYVARQlDKy8/EJgCCuViApCDeseXoN29JGtqKYjf5zTWEa8/OoVEIph1QcRFMUhxu59e0g19JBNJCh65RVXQU0t2AOoiSMUlbHj8GYCx+ux4QQNuTyjfCLAxcuWMsKpwlCCwQICBAAFfCBP2hugvbWBjpYOBvrTDHR00FN/lM6GFlK9/aR7+uhp72JwKIfN+ywoDVM6biq37tjMKKVodnkJs2bPBPoRDGDBKCigBtEQmBIO7tlN9lgPJcEIT+IB63gWqsqT/D0wBfzFBosgNPV0c4sof7tgKt9+/6fZtPVRvvaD75MILgbZCZpDiQMKWEB43okPCDCe1Td9mT1f+QYNNdP5wc4djBBGKUVDwKf5A7n8X6LKUKZAKOZy1uw6KmOGbMGSzlvEcXAdcBwH33ps39vzm8amzCsZJiIUqSpFV6xYzic/9jEStdV84z0vp+Ge39Hvuwz6dYRtgiQOTrTA8mrDh//lIzjlH4UuIMgwHwwgDngWyuIc2+tQJgH29XcxygF8BFAExQX1QS1FBlBAVLAo06MJzn3JeMhvhNIlkJsO1Q6bd2WI1EeprQzTfALefc4ZkIzB4BzUlCDiAJMpr+5gYuR3VEqUeCjMRQsWcd6MmSw850xmLZtP3YxJSGwsmm5FU61ofBIacDBMZcsDn2WCn6clO0SRCqCwYtYMpiycDAyhhEFSCDHWPria8bkhWvJZHqM8Zozjct4ly4FmjMSAsfjSAJSy9o57qR4cokmFopddugzw8U0MUUE0D6acu+7aiAykaAlEKHIAH1g8YybTr7oEMKTyeU6c2E5fdzvZgRStjf30trQy1HyQvhPN5AYLDPVm6G3vBGtJBIN46Qx+vkBJIokbjlESdAhEguQc4dGc4aE168l5PiCIgCrMWn42zKyDfBqCQcQWQBQraYRSVAQhzO5N+3BSaXpCYUYJoAw7CDQyTERQVU76OxG5VIZZax8CbjLGFBzHoTAMuAzY7KOThVFHunv4iZ/jdUsWsP+nd3LunTP5yP/7Em969dtAQPQIqgriAJbnj6AIigcYHErY0TrI6n6hwXTwGOWJPge08Ady+T9AEHxr6U9lmTujlrnTy0nEQmQLFhUlEGSEqlJZHmfj1qOvO3gi80pBMAi+OkCB6fEA73ztK3nlJVex7rZbuOe3vyKpARKl8xkTdwnkM7TnM+xNDbHzSCcXTVtARUULdGyAJFiiiAhiABuACqG/N8ju3RnOr0xyW3snRYJFRVAURHHxNBqUY4lIZKOnZl5739ACAyijlpx3EaF5McgmIbQcTBCYxENbHiDX53GkJEvRJRefCaQgchZiXRAFYqxYdjVnfbGRwPgFfGnuVZRMmw4EGNUB9AAHkCigMbAWMUFytLJ783bOq63m+pYORigjzl+2FMrHoNoGohiiQA+b12xiQSTOb5oaGSWAggiocvniOdQuWQpEUfXZs+ch5s5ZAE6IR9dtZmIsxt0nmphQUc6cRdOBPiCAqAVjgB72PryVinicRzq7KfIZ9dG3vJ6N997Nz7/4OcJ5JZ0bYmAgS24wh6hLieNi8gWMCRCOJwiFY5QmqknlhuhU6I8EaZMMHX0pBgvdeFZ5CjGgFlWhaMWC2eBUgyNAJ0gOxMUwB2u7EYmAxGnev4PB3iGOlFqKBEUZsYHTTZ44ceKqf/7nf54+efJkQqEQvb29b/rsZz/7xUOHDr00HA7vNcaQy+W6gAuA1QpTQBCgvW+Ia7ft5a2zpzIzleZLr3kftyz/BR//1ic5f+HFiDigR1EtgBhA+NMZRgVQFZAcCxe9hO01PyeeKTBKAOWkfcBX+SO4vJAJI/IFD98T6saUsGBmJZ7v0945gIhwiqoSCgVpbet2t+xu/RTDHARwgTxFbzlvCXOBr3/447T7WZzSavYODLLr+CEGClme7OyLXwa1A5BKQ7wcMWNAFFDQEMwYx923HSPdOkRiBhw70gcCquCIy1nzS37suOa2xob0wYqorV9xzlh+t6Z9QzuggKIUXblgJjgGPzQRbDlOOABMZt1vv8XYhLC1oYG6WJwFM0oBAbcOqwICBiUUTxJ+z1eBDEgSOIYyhFJACAABBMECIiAoEGXX/sNkWgfIJ6M0DaQ5xQUueuklgEUkhMEDxrDrwF4yTceJlsY5dqIJCOCieHigStEr3voWOk7sYWf9YYKDWd5/1Tv59//8Cgvf8gZa9h9nfCxEJ5b3rlwJ4yegtglMHJEMUE1Pth979AhBJ8ye/lZOSbgOx9atY/OPf0qhawgnEYBkBCccQUVJFyzNuSE6LHRmcvT3dAPKcyIOjhqUAtZYUMAqQWDJuecDUX73mX9k/tnnMvGKdwFpOusf4fNveBNV887hU9+/jcG+IcqrIxzq7OdJGhkmIqhqcvr06fc98MADU1etWsWqVasYGhqipqaGtWvX1l155ZX3b926daHruu0igqqeAM4C1gOzVBSjYNXjR/sPMzNZyhvOPINDO3fzxkVXsehVl/D5L3+UOdNWIpIBmsBmUQwIw4TnRgFhlAI+IICHEQOEyG5/gEVhYVOfxyjlCT7LH8nlBUyAVC6Pa/OcMWsa1VWlZLMFrBoikTCnE8pKgmx49PgnOvsLsxHwVAGPIuMI1z20lWB+M80oORTaujmdMEopumB6HcQPYitngNRAIIAQAHVQAWEGuzZ1MtYO0eFlKXIAH8W3fptxgu8PBmQomQwxYWyQ/gznHG8bPJdhyqgy4JKL5wEhcM9A1AGp5XBbE5ldRzmvqoab2ndx2axpBCurgRjggTBMUEAZRCSAjwDtOAiKCxgsBhCMKhAAFVSyCOVs27CG8r5eUrEEowRQFo2bwKIlC4F+FAGbBZNkw/rNVPT20RItwVLkA4JBsCgTYlFWXHoZn/qnd7LqvjWsnJDk8+eexb1f/TY//ep3uaqqkj39vRS95opLgTBiXJQUBfEJUM4d9/2aXEcnlFWRV8AACoM+fOGuBxkfidLhFWjvyeKj/F5iAAVVEEB5KvWx+IxQQBkxq7qamYsW8MN3vZHKO39Gdf+jvPV7t5OIOsxt2MkZPWHu+OndrNw6l3nJGJXV1Qw1dQGCioJStJFhqsqwd33nO9+Zeu2111JXV8e73vUuUqkUP/jBD7jmmmv42te+VrNy5cp/9TzvAyLCST3AQtA7gYsUMIAFDg708ZktfVxSU8U/jJvE7jvW85r/voRZV63kXe97EytWXo0xcYRmoBuLooBRAVFAQV3AASxgUcBIAAgABohQJESBGODQcHQD9TfeSZuUcrCvhSe5C7iVP5LLC5AI+BZ6+7PMmFjK/JmlVFVEyRXyhMOKcDpVJZmI0NXdP/6RnS3XMMwgWBRQELC+0uQXOI0IqHKKIAhgUWY7Uc5fMh4KRzGJM/DtGKwpYCSEaBATDQMTWP/wL5lbYdjY3UWRKCfpmg1bW4aSsSCvvWIWE8aVcu+GYxd7nCSAwpkLFjLmvEUUOZSDZIESHnp4FbnOATKV4yiqMBZsHksAi49jPZRhIgigmsdQJCggIoCDooCPqmWEKCIFIMfa+zcwORlmR3qAUUrRsjPnEphSAvRiiWKMA3jcd+96yhxhf0cnI4zFt4Iw6lWveiW7tmwmvv8wnz5/Jft6O7musZXKgMP8aAnNuSw/O9hARUkJZ154JqT6aTp4kHFLJiOUABE23ns/FW6Io/2DjFABFRCl2/p0Dw3wOAGUZ6WWxyjP5JhCCBiH5TFX/83fMPDbW+i+5WZk6Qp+tamJ2MH12HCczvE1/PdAFxMnVFPX3MLs6DR+3dPDCDEgPihDwF5Omjdv3iUiwje+8Q22b9/Oxo0bSafTfPzjH2fmzJlceeWVLF++fOHatWspEhFUlWE54GKUTyh8QTlJAIX72jpZ19bF+WNreWliMk33buKa362l6szvcPUbruCyv72UybVnYvCAbpBB1BZQXEQsiE+RRTEYbA5MMMpAtpfjR46RGewh29NM4+EO2to68TevZ0askm8fO8ooAZSTPsqfwOWFRqBQ8Mlm80yvG8NFZ09DsAyk8gQch6clQiTgsnF72+cLPjEDqCqnER6njFJlhAigoCAIRbOXLyNydhnkasDU4jghEEFMGJEABCfy6M56uo90Uzmxjq079lBkKRJAHgGltDTGhAlVFPJ5Gpv7ruAUZcTKhbMhXoGlFRAMLhBhw733Ux4KsL+rg6Kezm7Y8RCm7i2AC+IhCKMEUEABZYQKiAUMhjBiIoDLqFq6Un00HahnUnkZOw4c44lefsUlgIulgBBFSNLZc4Ce/Xs4o6qSOw4cp0gsKIJiKVq8fCm9q1fhhmO8a8MjpG0OXy0BEX5JE3lVil571iIikxbx6+u/hN+5h1cvuRHI0Ec9Tdu2MpMod3Q0USQ4KAqqgOGplN/DAs1AOzAItAJHgXrgBFAPHAV+ALyNJ6jpaGLv7w7wOzfBhlUPMSZZTZkTJJ3K0PTobqz6PNouzK0o4/4dBzk0OAg4oAoIoJuBVk4qKysr6ezspKi7u5u3v/3tFF199dUUpdNpJkyYwLP4InAbcDOwiCIREMiocm9LC/fTwZljKrlg6kSGGuq56YOf5fqv/IC5Z8/nkpdfypILz2bWxFmIKUcYAvqANJBB8BCqaK/fw8de9zZSg+ASI2KzmEwP5Cwhp4RxVSX8Mt/Ngd4uRiknfR/Yy5/A5YVCQATyeZ9MtsDyc89g5pQxpAse+YKPOFGejiqUl8XYsbP+4i37ut/IMMspwghlmHJKwBGNhtx2MWZPRUVyV0f3wJsGU7lyUHxGXb54AYRj4NehfhKMiyMhEAfUAeaydvW9jMnmwRF8ZZhgUUAwyCoLlCRcDh7roKcvM6ulI30uT3LRhWcBFsXgkACC9GSaaNiwkZfUjOX64yco2tGd5cB3v8uscXMxi14DsgtUsFiM+IALxIE44AIuEMTBAIP0ZVvoau+kt7OT3vYhbr/xbmq6e3FqxjDge5yyoLyMZS85D0hhmMWxg+uYMm0CO450k2xvIV1WR6cFBIyCz6iFs2YyqX+Ag9uPcHN3D4N+hhECBVUQhgmgvPo1L6fohp/fxpc+/Dcc2XsH33jP52ju62SqRIhWJGlrzFGkqvweA0AvkAJOAA3AceAY0AI0As2Az7NbwhOIE+Tf71lN1svTls+DQPtAB+2cJICAqrKnq4dRBkExKL5StJ9hIoKqsmnTpu2f//znz5w9eza+7/Pe976X1772tVxwwQXcf//9zJ8/n2uuuWaAYarKMzgELAbeBnwDNA4CBlCDtZbN7W1sbm+jKhlhxdRJTLABuh7YyA9++wC5ygoWLJzA9CVnMuv8C5g6u5JJY6uJuBMwlAIFamZN4AMfehv1//ZFnNqz+d7RJrLRMoYClu5Bj9bD9aS9PGAQLMqIbuAT/IlcXgBEwFqhv7fApIkBrrpkDrVjSshks3ieRQRUeVqO4+Dnh9i8u/HjPIUScY0fCjpNVrQxmghuC7qBzf7Q0NbFZ9QdzRUcDyksam/v+RAYQAFLGLhw6SwggTqTUUdRHAylCC4wBMR5ePV2JoRcdvQO8DhBkHWKOcCwoJcm09FEW2tueaFgGWEAC3PHjWfhinOAXiBBT2+a8rKJrF73G7IdvbiTxtM6NAQIbTbHt3bA+Ld/mCt+No6Fs84DyWHwAQvk8ejlePNh+nr66G09wfG9LfQ3NtJ/dD/ZrkG6e4cYSqUI5aDEDbBy5iR+vP8YRY4B38KcsxYQnrOUoq3b13DDB97It9bcz82/WUVp1qWp4DNCwafIUnTJlHLG1x/j3/Y0cXigm8coo5RhSlXQ4cI3v4X/fugWwl2dJDt7+fq7X09NaCyoIVkZ4r+PHKZIKPJR8IFdwDHgOHACOAacAFqBLsDnjzcdWMwpAurnOZ7O8xgFAZSTlNMIoCgK+Cgn7WGYiOA4Dvl8/ubbb7/9bTfeeCN33nknq1at4vbbb+fLX/4yx44d4z//8z/p7u6+iefmhyg3AJ9D9cOAAxYBlFGdAxluHThO0bSyMuaPq6XacfAePc7mNYf57fdupbQ0wqSaUuLja6iefibR2kpqZ1Yy9aWvJrd9IwP3rqXdD7PtWC+nMxQpwij9N6CbP5HLC4C1iqBMnVzO3BnVJBJBBnt7OUV5eiJCyHG458H6Tx9tGlwRMhAIUB8ORxoKnt06bWLl5tKQv7Wjp78+EIvbgoD1HU60D1CwlrE1UdY92vL6VNYHBEUAZemsaUxbsQTwEUoQLOBjNY5vC7hOKS09uzm2cw9XjKnm7oYmRhmKBLve4pOMBZk3dyzliSAHW05cTpEAVgDlygVnEJg4G4izZdNqrnvXm7hhWxNbN+2iNJOhoT/NCAfw4a58gpWtls9cfDVzXns1MxdOJC55mo/00tnYytCx/fidgxRykB4cQPwcETeMqBCLJ4hImJxxSEU8Ttg8v962i5aBDBjBt0rRP73htRzYeTd3rrqHR753E++aUsOdb3sfAw8eYsWCBXx1y6M8nSl+kOse3sb9Ay2McACfHwFXArWc9MaXvhLcMN999wf54MxZtK/bT03lJG5u7mFnRxMcZYRhlAA+PAhcyp/PS3gi5Wkpz0wpUp5kG8NUFWstwx785je/+ZXKysqPLV++nGg0iu/71NbWcuONN/KZz3zmW8BNPHc54F+ArwCfBd6qEOFpHOnt5UhvL0XxYISFZUnKQkq5GoaOdtO5q4ET0S305/N41pKsGYfGwizwwnzu7Gl8cuNxdnR1AobTGUC3gH6X54HLC8BgKs+UiWVccuF4srkC2WyWaEz4fRzH4BpLKjMoVZWhd08Zl/xtZ1dfcyIeo3/AI5kIE3EtmdYeJGzJeD5GDNOmVjJ+QoKqygjsCCxgmAEsStHLzjsXqmpRWoEQQgGYz4O/vp5Dd9/Gu3+0igdW/5Z4dy+JOTNoP3AEEMBSJOiDDJsyoYxx42po6xoYe6wtfRFFDuApRRddsRKIAjm+ct115LY3c+Cr/8ShR4+ycOx4ftPVRZHjgwo09naxSaq4tLqc+u/9nN0Fn1jYEAci0SSBcAg3HCBlgmRjMfoLvbRmcjQNefR0NADKkwmCWqVoSW0VwYN7+N6nv8CB+mZeumgWjw46HL9zD8smT+KXDcdoyGR4soBr+MwD6+n2PEYYQHgfsAd4K09wxZuv5oFPfJxX5SxrmrrYsqWXQwP9NA8O8kTKKGXE7fx5LeW5OwF0AwuBnwE1wETgKNAI1ANNwCHgUYapKiKCMQZr7b9+4hOf2Dpnzpx/u+yyy8oCgYBec8016e3bt38R+Cl/nF7g/cDHgA8D7wTGcpIgKMMMoEoqn2Fde4YnqgiFqHUjlIeixI2LN5jFySubTCV7Dw9QyPs8lQLKsK/xPHF5AbC+Eg45BEOWgq/E4i7PhTEGIz4T6gKfHcz5GONgVcjlfDzfki/4BLEYEaxVBlIFJo+PccGZY3ADDr3d6bqm1oEVPEYpWn7OfEARBGwazBK2Ht3MO1//dq6brMBhHtzayFgvz9H+LKMUYUSDDw8wbMGUCiYmwxw+0P6SdMZLgICvFC2bMpm58ydzzRWXcPf+44z1Cnz59Vfzux//hOZ0KWdMmMLBw0cBweKgagCf/T2dHOnt4oySOOUlSYYclxO5LN2pQZq7OhnyLb+PwSAYLD6KggAKB7v6+Mg3/4sxJUlKpk3mpuYuNnd0URoKk27fQd5aQBilnFLwLR1qeYzyHTy+C9zCEyyeOJ7E1o3sXrWe1U6UW7bu5hRBMIAFFFCUJ3iYP69Z/H5DwHeBzwFpYALQBFj+ACKCqv5y3759v9y3bx+niAhFqsqfIA18Hvg8cDnwAeBC0CDDRAVVEARFeaLuXI7uXI5nJoBhlDJKOenNwK08D1xeAMSA5yv5gsVaRZXnRFXBQKGgeJ5irUUVEE6jCtmCz3ln1DF/eiXpTIaIE2BHQ/+l2aw6DLMoRfNrqzjzFSuBMJAAM5UjzXt5zaLlXFQ+mbOnZ+Cea9m7v4klZeVsbG+mSABhxFoF33UMjSdaGexp51Bz5iKGGRSrjLj4jOk03nI7yV3HON8WmD55PO+5dx2Lyit547TxrG7oZJSLYgHllIIq2/oGoW+QZyOMUk5nsYDlMcqIVKHA5kIBhtI8UV8uy+OUp1Ce6Bco72fUEp6gvbubD133c46kcrQWMjyRoCgjPKAfQYAy4BGUPfz5RIF5PLNe4OvAN4Asj2vkeSAiqCp/BncDdwMVCn8DvAbRpaIkQSkygALKH0N5gpcCNwD/yJ/I5a+ZMExJpXNUJWKURjxONLWRLyj50hBdPfn5DDOAZdTrrr4ayqvZdvgRFk8/n41b7uFdV7yGt1fXsCtYwlt3tPP1G37LzM0eNXXj2b/pUcABfE56hGGzJpayZP5Eegcykabdxy5lmGWYAAp3rtnM/mSMh7s6CQUj3LHvCE19feT9MmZUwfqWNkZ5zJxQsrqzP13X0+9P4xRhlPKMlFGuY3Ac8Y3Q5iudtWPDa9TT+Y1N6RU8v34DvIFR5wFTeYLmVJpm0jwdCwhsBt4J7ASSgAWyCJYnUp5Py4BKnqoZ+ALwPV7YuoEfAj8EwhguDBjnKlU921o7U5UEIqDKn+gfgH3AV/gTuPwVU4Vc3jJ1yhgmTqoi7Xl4vmIcoScnNHUMXMwTBIGLF8/gC697D3c99AhL502mZ/8h3j5+EgeMw41btlMSjLG7RbhkTCm/y1pyFPkIIzwLdzJs5qQSSkuCtHWnXtKXyk+iSMBRUGBrXx9b+/oYkctTZIAdPX3s3rAdTxUQxCixmPO+ytrK/fWNg7/t6Rq6PFuwgoIAigMogiVowA04/VZpD4fCbaFIYH9NmdmP7++PlwQOdXV6DcfbUzqt1qWjLX8XjxFGKc8mEjTWdUzTYMYbA4Q43d3A3/C4l3IagwCKgjigPqCc1CHwXuA2HtfH/4ylnO4g8CngNv7vyaLc47rOPQwr5AsxRBYrLFWYDUwBaoEIUKKqScDw3H0ZyAPf4I/k8ldIAGvBK1gmjY9jXI+g6yMoQRdCQUPfQHZJZ39+LsOUUcvmz6GwdTuhnfs4t6qGrgP1TBs/kV939nF/QwNF/fkh1vUmuKyujN2PHqNIMFgsw9YCjaGAQ2VZjEgoRHPb4ApOMgoGUMDyVJYixbMMU4pUqd+2v3vPvHk1LDljwpWFgaExJzq6Lm3ryp9hfb8sVXC1KpHoSUb8g7n84N5QJHI0Eop1pwtCIGiYPCFCZ/sguVwG4zrMm15FPm1nHGzsv5wiAZRnFAwYW1EWeShhAg8G3NyPTvTnlwB3cbq1wBWcbiWnsSgnqQ8oJ30Z+Dh/JmJ4VgoXooCyE/g4cBf/x6kqJw0BDwMPc4ooIgSBMiylqkSBBGgcNAEEAQGCgAMoozxgLGD5E7j8lREBq5AvKPlsD+onSaXy+L5FRChKxlyam3PLCgWLYDBYfOBEUxvXr97Iwx0dHOobJOC42I5ufGsZFQAK3NWaYyiS5kRnO0UqFlQYthWUaZMqmTNrPKnBDMdbUpcxzCAIig8oAihFgqAop4gDQcS6hi7HNYG8p9dnC5bOziGqSxPEAm57dVXsZ/0piy0oGavEoiFKk9DVO4TnWTSoeL7i5y3pTJ50rkAoFmL22CrKS6LsPdy+PO8zSkFcCBrtLQ2Hd0aS0RvjychgY2PHtwdShapzF1a8qm5sxW+OHk6xp2GQ1JB/GafbAlzC6SYCS3hGyrA7gbcDLfyZiADKs0k4jumxvn2Vwq940Sl5oB1o53+Yy18RESGT8UkNpTlvyVRqKhyyOUsgxGMUKI0HGTh87CUMM1iKDHC0p4ejPT0ggEDB9ygSHBQFfASHPZ297OnsxQBGwBrAF0DuAJ9Y0GP3viO0d2cWN3SmFzNMAJ9RjgPRkNMTi4Qaewfzs3N5L8SwcdXOva4EP1hVVpYyUmhr7ejLD2YgW7D4vlLk+5ZszsP3FWsVVcHzLPmCoqqIgKqCgiCoCl7Bp9wN4Jo82Uyetu7+1zKstsxdC/59ycqSVSHHbIup42s0ji+WxXNrHjpwoLMu5JqtjmM42NRDashHRC5AQVGG7QVWAHlOtxQI8fQOAm8DHubPSAzPRdYx5h+s1QKqvOh/n8tfDSWX9xhTXcq0KWOYO3McFqHgWYTHBQMuuXwu3tKTW8YwiwCKAAawDBPAAXzAguIDBlAUyygHiwEKoOCghw12QwHBU6GrL8uJ5v4V1lqKfJRYNJAtjTprHde/YXxd6X9PmzJ1aNOmhguPNLTe58HQnJm1f9/Vke1WBRxDwVOsCkWGYcIfxLeK4xrmz0zS39dLqj9DOEAs4Ba+eNaiyX8b8nsH2nv6cR1BjCGd9jCuh48lGnDaQyG33fPhkR1t9A5kGDYNlfmgDDsKLAdSPNVVPFUK+Cjwn/zlKKgqL/rL4fJXwrdQ8HwWzauhriZJR0cbVkGE0yTiQY429J3f25etA4NiKVJAOMkCVgBFgGRJ8NDYscnPBNVxDtR3fDeX01JQQEEFUUXQrQXwxpQEOWdRHbF4lD31Q69mWGlJYHcyGf7ehDGJnyejzsCBo234VskXfEKuu3piTXhG92A2kc1rt7WKoohVEP4kquAYqCiPYCSPMQ6xkBk61jmw2vMtUlAKBcWxikFxEIpEBGstriMcONpHa1+BUWaBggHtBs4HehhmjCBGQClyfd9ewOm+D3wQyPCiFz0Ll78Cvm8JuA6VsSANh5s4uKceEeHphANCa0/+fHARQLEUiQggoIqghF2Tra4I3BqNmm+WVpbvCEeCeGmfOVOqbu3oGfpma2f6PdZ6FCngwb0MmzW9nPmTE+w/0rXQy2ZbZ0xOLo7Hg9sd18X3lXTGw/fBqmJV8XwFod5xwfqKogjPH1XI5X0KnsUYIe8ovipGFeV0iiJAwHWIRwwehpbuHGAAYdgbGHUO0MpJjmsQI4iCwgyrdqJaitYDbwYO86IXPQcuf/EUVVCFYMBgraLKc+IYA6K4rqGmNEEkEsWzCUIxnpYqxKMBjnc0nQkpFAcBBLCqgBKPBL2aqthnXMl+pawsYjM5j3zBA2Pwcj65vF+oG1Py3rq6ymsPHG3+wWCft8JCFniAYclkBBOJ0t47cLAsLq9xo5FCKpMjGBRMwAExnEZAFdQCwv+6gGtIZQvsbOmnqzfLKGXYOJDFwErgCCeJgO9ZlFP03WopehlwBy960R/A5S+ZgCqks1lU8nT1pslkPZ4rEUaMG1tDRaXBIgjPLBAwFPJ2fOdAZgUjFEVQFBEoKTG/WDC95v2+mp4TTSkiOR/PVxxllICqJZv3SMbiR2oqQysrQ9572nrdC9N5r1GBlvYUQxmPUNDJeL5FC5YXikDAZTCVZf/Rdk6nDCsHfSuYhzhJRBARVJWTBGQD6JeBZl70oj+Qy1+wgmcxjstLFk8hGYPG+gzWKn+oUChEwgVV5dkkIkH2NLVeks76LiMsRRVl0V3lJfIPnuZ3qQjZrMczEwTwPJ9M1qMk6l5XqoHr0h0eRSdaB0ilCzhGeKExRsgMeTyDvcAenoaIcJIOu5EXveiP5PIXSAQ8T8hkfWIBGFueIJ3xsZ7FFf5gfhZ8np0qxANhujtZwknhkNM1qa7s3RVl8dv6BvoY6Evj+8pzJYBvFc9XTjECAij/51he9KI/M5e/MALkCz4lCeGCc6dRW5WkJ5vHRxGXPxvHMXTlMuZIW9/VDJsyMf6l8vLKT6lfsNlcgYLnIyK86EUv+t/j8hdGVbFWqSiJUV4aZyiTR1Vx+PMKuy4nWjtXOkE5PGNC4NySimCD4pDLZQgFXYQXvehF/9v+P3OYobcUoWqgAAAAAElFTkSuQmCC;" parent="4" vertex="1">
                    <mxGeometry x="171" y="40" width="445.95" height="220" as="geometry"/>
                </mxCell>
                <mxCell id="2" value="&lt;font style=&quot;font-size: 50px;&quot;&gt;ENTER to Start!&lt;/font&gt;" style="text;strokeColor=none;align=center;fillColor=none;html=1;verticalAlign=middle;whiteSpace=wrap;rounded=0;" parent="4" vertex="1">
                    <mxGeometry x="204" y="290" width="380" height="30" as="geometry"/>
                </mxCell>
            </root>
        </mxGraphModel>
    </diagram>
</mxfile>